<?xml version="1.0" encoding="UTF-8" standalone="no"?>
<svg
   xmlns:dc="http://purl.org/dc/elements/1.1/"
   xmlns:cc="http://creativecommons.org/ns#"
   xmlns:rdf="http://www.w3.org/1999/02/22-rdf-syntax-ns#"
   xmlns:svg="http://www.w3.org/2000/svg"
   xmlns="http://www.w3.org/2000/svg"
   xmlns:sodipodi="http://sodipodi.sourceforge.net/DTD/sodipodi-0.dtd"
   xmlns:inkscape="http://www.inkscape.org/namespaces/inkscape"
   version="1.1"
   id="Layer_1"
   x="0px"
   y="0px"
   width="231"
   height="231"
   viewBox="0 0 231 231"
   enable-background="new 0 0 44 77"
   xml:space="preserve"
   sodipodi:docname="ezk.svg"
   inkscape:version="1.0 (4035a4f, 2020-05-01)"><metadata
   id="metadata921"><rdf:RDF><cc:Work
       rdf:about=""><dc:format>image/svg+xml</dc:format><dc:type
         rdf:resource="http://purl.org/dc/dcmitype/StillImage" /><dc:title></dc:title></cc:Work></rdf:RDF></metadata><defs
   id="defs919" /><sodipodi:namedview
   inkscape:document-rotation="0"
   pagecolor="#ffffff"
   bordercolor="#666666"
   borderopacity="1"
   objecttolerance="10"
   gridtolerance="10"
   guidetolerance="10"
   inkscape:pageopacity="0"
   inkscape:pageshadow="2"
   inkscape:window-width="1440"
   inkscape:window-height="810"
   id="namedview917"
   showgrid="false"
   inkscape:zoom="2.2486095"
   inkscape:cx="153.51521"
   inkscape:cy="120.77307"
   inkscape:window-x="0"
   inkscape:window-y="23"
   inkscape:window-maximized="0"
   inkscape:current-layer="Layer_1" />
<rect
   style="stroke-width:3"
   fill="#154273"
   width="132"
   height="231"
   id="rect912"
   x="49.285801"
   y="0.38115457" />
<path
   style="stroke-width:3"
   fill="#ffffff"
   d="m 117.5778,169.43115 h -2.295 v -6.369 h 2.295 z m 10.35,-28.059 h -2.295 v -6.369 h 2.295 z m -42.497997,-10.983 c -0.174,0 -1.365,0.006 -1.365,0.252 0,0.246 0.552,0.123 1.365,0.252 1.833,0.315 2.562,1.242 3.849,1.242 1.17,0 2.367,-0.798 1.905,-2.484 -0.078,-0.282 -0.249,-0.216 -0.282,-0.024 -0.183,0.75 -1.113,1.188 -2.091,1.188 -1.212,0.003 -1.47,-0.426 -3.381,-0.426 z m -12.639,6.366 c 0.198,0.276 2.37,3.09 -0.957,4.161 -0.15,0.051 -0.198,0.192 0.021,0.291 2.457,1.026 3.645,-0.861 3.645,-0.861 1.239,2.82 -0.657,4.395 -0.657,4.395 0.267,0.51 1.443,1.365 3.228,1.764 0.672,-0.363 1.626,-1.056 2.013,-2.121 0,0 0.483,1.236 0.042,2.415 5.016,0.456 6.792,-3.558 10.656,-2.829 0.111,0.021 0.165,-0.054 0.165,-0.171 0,-2.472 -1.518,-6.99 -6.303,-7.911 -4.764,-0.927 -3.483,-2.883 -3.483,-2.883 2.016,-0.087 3.177,0.786 3.177,0.786 0.366,-0.603 -0.156,-1.254 -0.156,-1.254 0.195,-0.228 0.303,-1.05 0.303,-1.05 -2.268,0 -2.862,-0.492 -2.862,-0.492 -0.351,-1.341 0.588,-3.24 3.954,-1.206 0.837,-0.75 0.774,-1.893 0.774,-1.893 0.249,-0.117 0.405,-0.516 0.405,-0.687 0,-0.564 -2.688,-2.064 -3.378,-2.25 -0.165,-0.813 -1.209,-1.986 -4.374,-1.563 -1.497,0.186 -2.574,-0.207 -2.07,-1.074 0.084,-0.147 -0.183,-0.18 -0.321,-0.033 -0.345,0.345 -0.825,1.323 0.483,1.98 1.455,0.732 1.539,2.187 1.554,2.397 0.021,0.312 -0.348,0.339 -0.429,0.033 -0.669,-2.454 -4.023,-2.988 -6.012,-1.686 0.117,1.314 1.527,2.187 2.307,2.187 0.447,0 1.065,-0.438 1.065,-1.059 0,-0.303 0.153,-0.258 0.237,-0.03 0.33,0.873 -0.957,2.688 -2.883,1.578 -1.956,1.95 -1.176,4.365 -0.978,5.256 0.351,1.593 -0.432,3.141 -1.869,2.418 -0.075,-0.033 -0.15,-0.063 -0.15,0.111 0.003,1.011 1.308,2.142 2.853,1.281 z m 10.773,-9.864 c -0.918,1.02 -2.4,0.792 -2.757,-0.891 1.875,-0.099 2.676,0.093 2.757,0.891 z m 58.193997,3.927 c -0.981,0 -1.905,-0.438 -2.085,-1.188 -0.048,-0.192 -0.204,-0.264 -0.276,0.024 -0.465,1.692 0.72,2.484 1.902,2.484 1.287,0 2.007,-0.927 3.846,-1.242 0.804,-0.135 1.359,-0.006 1.359,-0.252 0,-0.246 -1.188,-0.252 -1.359,-0.252 -1.917,-0.003 -2.178,0.426 -3.387,0.426 z m 18.867,4.659 c 0,-0.174 -0.069,-0.144 -0.141,-0.111 -1.44,0.717 -2.217,-0.816 -1.869,-2.418 0.189,-0.891 0.972,-3.306 -0.975,-5.256 -1.926,1.101 -3.222,-0.705 -2.892,-1.578 0.087,-0.234 0.234,-0.273 0.234,0.03 0,0.609 0.627,1.059 1.062,1.059 0.777,0 2.187,-0.873 2.313,-2.187 -1.986,-1.305 -5.337,-0.774 -6.006,1.686 -0.081,0.312 -0.456,0.279 -0.435,-0.033 0.003,-0.207 0.099,-1.665 1.554,-2.397 1.311,-0.657 0.825,-1.635 0.486,-1.98 -0.153,-0.147 -0.414,-0.114 -0.324,0.033 0.507,0.873 -0.576,1.266 -2.064,1.074 -3.162,-0.426 -4.206,0.75 -4.371,1.563 -0.687,0.18 -3.384,1.686 -3.384,2.25 0,0.168 0.162,0.567 0.414,0.687 0,0 -0.063,1.143 0.774,1.893 3.363,-2.034 4.299,-0.135 3.954,1.206 0,0 -0.597,0.492 -2.865,0.492 0,0 0.102,0.819 0.306,1.05 0,0 -0.522,0.651 -0.159,1.254 0,0 1.164,-0.873 3.18,-0.786 0,0 1.278,1.956 -3.492,2.883 -4.779,0.921 -6.303,5.436 -6.303,7.911 0,0.117 0.054,0.186 0.168,0.165 3.87,-0.717 5.64,3.291 10.653,2.832 -0.438,-1.182 0.051,-2.418 0.051,-2.418 0.393,1.062 1.347,1.758 2.016,2.121 1.788,-0.399 2.958,-1.254 3.228,-1.764 0,0 -1.893,-1.569 -0.657,-4.395 0,0 1.188,1.887 3.645,0.861 0.213,-0.093 0.171,-0.24 0.024,-0.291 -3.324,-1.068 -1.161,-3.885 -0.957,-4.161 1.533,0.864 2.832,-0.267 2.832,-1.275 z m -10.857,-9.474 c -0.357,1.68 -1.845,1.911 -2.754,0.891 0.078,-0.801 0.879,-0.993 2.754,-0.891 z m -35.367,-28.181995 c 0,0.426 0.183,0.798 0.33,1.002 0.291,0.42 0.252,0.654 0.111,0.789 -0.141,0.141 -0.369,0.186 -0.789,-0.105 -0.21,-0.147 -0.582,-0.33 -0.999,-0.33 -0.729,0 -1.086,0.471 -1.086,0.884995 0,0.405 0.357,0.879 1.086,0.879 0.417,0 0.789,-0.186 0.999,-0.327 0.42,-0.294 0.648,-0.246 0.789,-0.105 0.141,0.129 -0.06,1.587 -0.228,2.73 -1.197,0.258 -1.773,1.212 -1.773,1.776 0,1.437 1.539,2.274 2.442,2.754 0.909,-0.48 2.451,-1.314 2.451,-2.754 0,-0.564 -0.582,-1.518 -1.776,-1.776 -0.165,-1.143 -0.366,-2.595 -0.225,-2.73 0.135,-0.141 0.375,-0.186 0.792,0.105 0.198,0.147 0.57,0.327 0.999,0.327 0.72,0 1.077,-0.474 1.077,-0.879 0,-0.413995 -0.357,-0.884995 -1.077,-0.884995 -0.429,0 -0.801,0.186 -0.999,0.33 -0.42,0.297 -0.657,0.246 -0.792,0.105 -0.141,-0.135 -0.186,-0.369 0.108,-0.789 0.147,-0.207 0.327,-0.576 0.327,-1.002 0,-0.72 -0.477,-1.083 -0.882,-1.083 -0.411,0.006 -0.885,0.363 -0.885,1.083 z m 0.882,10.712995 c -0.963,0 -1.755,0.786 -1.755,1.752 0,0.972 0.792,1.752 1.755,1.752 0.975,0 1.755,-0.786 1.755,-1.752 0,-0.966 -0.78,-1.752 -1.755,-1.752 z m 0,16.905 c 7.041,0 11.016,1.341 11.016,1.341 0.033,-3.552 0.009,-5.538 2.049,-5.238 -1.113,-2.982 3.687,-4.161 3.687,-8.052 0,-2.565 -1.812,-2.859 -2.355,-2.859 -1.584,0 -1.338,1.038 -2.691,1.038 -0.171,0 -0.342,-0.042 -0.342,0.075 0,0.444 0.381,1.212 0.999,1.212 0.831,0 0.855,-0.825 1.47,-0.825 0.264,0 0.654,0.216 0.654,1.065 0,1.659 -1.086,3.492 -2.367,4.917 -0.291,-0.411 -0.687,-0.663 -1.176,-0.663 -0.756,0 -1.422,0.792 -1.422,1.764 0,0.363 0.057,0.621 0.186,0.933 -0.432,0.24 -0.807,0.375 -1.089,0.375 -0.567,0 -1.446,-0.234 -1.446,-1.5 0,-2.817 3.786,-5.31 3.786,-8.877 0,-1.704 -1.137,-3.405 -3.522,-3.405 -2.562,0 -2.079,2.331 -4.293,2.331 -0.102,0 -0.186,0.03 -0.186,0.123 0,0.147 0.387,1.437 1.53,1.437 1.218,0 1.563,-2.115 2.649,-2.115 0.411,0 1.017,0.24 1.017,1.677 0,1.113 -0.561,2.916 -1.35,4.641 -0.288,-0.282 -0.675,-0.498 -1.107,-0.498 -0.954,0 -1.635,0.924 -1.635,2.019 0,0.687 0.276,1.356 0.744,1.8 -0.558,0.72 -1.125,1.299 -1.905,1.299 -1.527,0 -2.199,-0.867 -2.199,-1.812 0,-1.02 1.866,-1.395 1.866,-2.988 0,-1.08 -0.702,-1.695 -1.377,-1.695 -0.735,0 -1.107,0.486 -1.182,0.486 -0.069,0 -0.444,-0.486 -1.176,-0.486 -0.678,0 -1.383,0.609 -1.383,1.695 0,1.593 1.869,1.968 1.869,2.988 0,0.939 -0.681,1.812 -2.202,1.812 -0.777,0 -1.344,-0.579 -1.905,-1.299 0.471,-0.438 0.741,-1.104 0.741,-1.8 0,-1.095 -0.678,-2.019 -1.623,-2.019 -0.441,0 -0.831,0.216 -1.119,0.498 -0.792,-1.719 -1.344,-3.528 -1.344,-4.641 0,-1.437 0.609,-1.677 1.014,-1.677 1.077,0 1.422,2.115 2.652,2.115 1.14,0 1.524,-1.29 1.524,-1.437 0,-0.093 -0.081,-0.123 -0.18,-0.123 -2.211,0 -1.737,-2.331 -4.29,-2.331 -2.385,0 -3.528,1.698 -3.528,3.405 0,3.573 3.789,6.063 3.789,8.877 0,1.266 -0.876,1.5 -1.449,1.5 -0.285,0 -0.666,-0.135 -1.098,-0.375 0.132,-0.312 0.186,-0.567 0.186,-0.933 0,-0.972 -0.666,-1.764 -1.419,-1.764 -0.477,0 -0.876,0.252 -1.167,0.663 -1.287,-1.425 -2.367,-3.258 -2.367,-4.917 0,-0.849 0.384,-1.065 0.648,-1.065 0.618,0 0.636,0.825 1.47,0.825 0.615,0 0.999,-0.762 0.999,-1.212 0,-0.123 -0.174,-0.075 -0.342,-0.075 -1.359,0 -1.107,-1.038 -2.697,-1.038 -0.534,0 -2.346,0.294 -2.346,2.859 0,3.891 4.8,5.064 3.687,8.052 2.037,-0.294 2.007,1.686 2.049,5.238 -0.006,0 3.96,-1.341 10.998,-1.341 z m -12.903,5.256 c -1.917,0.42 -3.288,0.813 -3.903,1.002 0.03,-0.846 0.351,-1.629 1.107,-1.806 0.099,-0.03 0.12,-0.159 0.033,-0.21 -1.703997,-1.137 -2.624997,1.038 -2.648997,1.107 -0.603,-0.048 -1.527,0.147 -1.527,0.96 0,2.442 -5.598,3.804 -6.888,4.002 2.289,0.879 3.24,3.762 3.24,3.762 1.659,-1.659 3.594,-3.123 4.02,-3.123 0.441,0 0.609,0.552 0.642,0.879 0.003,0.111 0.111,0.147 0.183,0.054 0.867,-1.296 0.444,-1.584 0.378,-1.965 -0.057,-0.303 0.033,-1.437 1.301997,-1.305 v 16.317 l -0.650997,0.129 c -0.3,0.06 -2.688,-1.974 -5.421,-3.867 -2.727,-1.887 -4.197,-0.756 -7.311,0.933 -4.077,2.202 -8.199,0.204 -8.199,0.204 -3.519,2.508 -4.716,9.774 -4.716,9.774 -0.699,0.3 -1.86,0.615 -2.958,0.615 -2.688,0 -3.177,-1.623 -3.177,-2.595 0,-4.137 5.187,-5.919 5.187,-10.002 0,-0.99 -0.453,-5.016 -5.442,-5.016 -0.639,0 -4.443,-0.012 -4.458,-0.012 -1.869,0 -2.334,-1.341 -2.592,-1.851 -0.105,-0.198 -0.294,-0.09 -0.225,0.072 0.144,0.342 -0.213,0.861 -0.213,1.899 0,1.662 0.978,2.658 2.787,2.658 0.822,0 1.602,-0.234 1.854,-0.381 0.168,-0.099 0.258,0.063 0.177,0.153 -0.789,0.927 -0.852,2.655 -0.528,3.072 0.075,0.099 0.174,0.066 0.192,-0.012 0.438,-1.746 2.076,-3.405 4.284,-3.405 2.709,0 2.694,2.298 2.694,2.85 0,3.321 -5.838,5.763 -5.838,10.323 0,4.641 4.896,5.631 7.734,4.899 -0.168,4.641 -5.478,6.216 -5.64,2.901 -0.012,-0.156 -0.126,-0.189 -0.216,0.021 -0.672,1.641 -0.405,3.078 1.662,3.54 0.141,0.039 0.069,0.111 -0.057,0.195 -2.046,1.302 -0.936,6.417 -0.834,7.917 0.153,2.175 -2.004,1.917 -2.181,1.845 -0.093,-0.036 -0.177,0.012 -0.042,0.183 1.53,1.875 3.417,0.165 3.417,0.165 1.428,0.45 0.546,1.668 -0.408,2.307 -0.15,0.105 -0.138,0.195 0.024,0.207 0.213,0.021 2.421,0.198 2.814,-1.563 0.978,1.176 2.418,0.744 2.721,0.591 0.426,-0.216 2.499,-0.972 2.7,1.359 0.012,0.165 0.111,0.06 0.183,-0.033 1.56,-1.965 -0.111,-3.186 -1.044,-3.318 0.069,-0.111 1.326,-1.152 2.454,0.288 0.069,0.099 0.147,0.123 0.162,-0.072 0.126,-2.49 -1.902,-2.718 -3.219,-1.635 -0.057,-0.252 -0.498,-1.662 1.488,-1.605 0.042,0 0.141,-0.063 0.042,-0.165 -1.539,-1.629 -2.808,-0.15 -3.102,0.201 -0.687,0.813 -2.391,0.486 -2.55,0.462 0.537,-8.67 8.172,-5.595 9.222,-9.813 0.051,-0.222 0.147,-0.141 0.168,-0.06 0.291,1.032 2.88,1.173 3.357,-0.849 0.027,-0.129 0.012,-0.228 -0.075,-0.135 -2.211,2.208 -7.194,-4.692 -0.399,-10.302 5.802,-4.785 11.001,-2.115 12.978,-0.543 0.105,0.687 -0.309,0.918 -0.57,0.996 -0.099,0.033 -0.126,0.117 0.027,0.18 0.552,0.207 1.329,0.147 1.692,-0.375 1.248,0.873 0.183,1.962 -0.321,2.268 -0.129,0.081 -0.075,0.165 0.039,0.186 1.14,0.204 2.084997,-0.957 2.123997,-1.635 l 0.195,0.111 v 4.926 c 0,7.014 8.088,7.983 16.965,13.935 8.877,-5.946 16.974,-6.921 16.974,-13.935 v -4.926 l 0.189,-0.111 c 0.045,0.678 0.987,1.839 2.124,1.635 0.102,-0.024 0.165,-0.102 0.042,-0.186 -0.504,-0.306 -1.566,-1.395 -0.321,-2.268 0.363,0.516 1.143,0.582 1.692,0.375 0.147,-0.063 0.117,-0.147 0.033,-0.18 -0.267,-0.078 -0.684,-0.309 -0.579,-0.996 1.98,-1.572 7.188,-4.242 12.978,0.543 6.801,5.607 1.812,12.51 -0.393,10.302 -0.093,-0.093 -0.105,0.006 -0.078,0.135 0.477,2.022 3.063,1.881 3.354,0.849 0.021,-0.081 0.123,-0.165 0.174,0.06 1.053,4.212 8.688,1.143 9.219,9.813 -0.162,0.024 -1.869,0.342 -2.559,-0.462 -0.288,-0.357 -1.563,-1.83 -3.096,-0.201 -0.099,0.096 -0.006,0.165 0.045,0.165 1.986,-0.054 1.548,1.353 1.482,1.605 -1.314,-1.083 -3.345,-0.855 -3.21,1.635 0.012,0.195 0.081,0.177 0.168,0.072 1.125,-1.437 2.376,-0.399 2.451,-0.288 -0.936,0.141 -2.601,1.353 -1.044,3.318 0.063,0.081 0.165,0.192 0.183,0.033 0.198,-2.331 2.268,-1.575 2.697,-1.359 0.303,0.153 1.737,0.582 2.715,-0.591 0.39,1.764 2.595,1.575 2.814,1.563 0.159,-0.006 0.171,-0.102 0.03,-0.207 -0.951,-0.633 -1.833,-1.851 -0.411,-2.307 0,0 1.893,1.71 3.417,-0.165 0.135,-0.171 0.051,-0.21 -0.036,-0.183 -0.183,0.063 -2.337,0.321 -2.184,-1.845 0.102,-1.5 1.209,-6.615 -0.831,-7.923 -0.132,-0.081 -0.201,-0.159 -0.054,-0.192 2.061,-0.456 2.322,-1.899 1.656,-3.54 -0.081,-0.21 -0.198,-0.177 -0.21,-0.018 -0.162,3.318 -5.466,1.734 -5.637,-2.901 2.832,0.732 7.731,-0.258 7.731,-4.902 0,-4.563 -5.832,-7.002 -5.832,-10.326 0,-0.555 -0.012,-2.847 2.688,-2.847 2.208,0 3.843,1.653 4.287,3.405 0.027,0.081 0.12,0.111 0.195,0.012 0.315,-0.423 0.258,-2.151 -0.534,-3.069 -0.072,-0.09 0.006,-0.252 0.18,-0.159 0.249,0.153 1.032,0.387 1.851,0.387 1.812,0 2.793,-1.002 2.793,-2.661 0,-1.038 -0.36,-1.56 -0.216,-1.899 0.075,-0.165 -0.117,-0.276 -0.216,-0.069 -0.258,0.51 -0.723,1.857 -2.586,1.857 -0.021,0 -3.822,0.012 -4.455,0.012 -4.986,0 -5.448,4.026 -5.448,5.016 0,4.077 5.196,5.859 5.196,10.002 0,0.966 -0.498,2.589 -3.18,2.589 -1.11,0 -2.265,-0.312 -2.961,-0.609 0,0 -1.194,-7.266 -4.716,-9.78 0,0 -4.119,2.004 -8.19,-0.204 -3.117,-1.686 -4.584,-2.814 -7.317,-0.927 -2.724,1.887 -5.109,3.921 -5.418,3.867 l -0.651,-0.129 v -16.317 c 1.266,-0.135 1.356,0.996 1.299,1.305 -0.063,0.381 -0.486,0.675 0.381,1.965 0.066,0.093 0.171,0.063 0.183,-0.054 0.039,-0.327 0.198,-0.885 0.648,-0.885 0.432,0 2.364,1.464 4.02,3.123 0,0 0.945,-2.877 3.24,-3.762 -1.299,-0.192 -6.888,-1.56 -6.888,-4.002 0,-0.813 -0.927,-1.008 -1.53,-0.96 -0.024,-0.063 -0.939,-2.238 -2.649,-1.107 -0.087,0.063 -0.063,0.186 0.036,0.21 0.75,0.177 1.065,0.954 1.107,1.812 -1.629,-0.498 -8.577,-2.451 -16.812,-2.451 -3.996,0 -7.677,0.459 -10.608,0.99 v 5.661 h -2.31 v -5.199 l -0.006,-0.009 m -15.185997,57.942 c -0.609,-0.246 -1.014,-0.639 -1.014,-1.437 v -3.516 c -1.008,-0.351 -3.756,-1.401 -9.24,-1.401 -4.563,0 -5.997,1.032 -6.06,1.395 l -1.212,6.687 c 0,0 1.848,-1.692 8.463,-1.26 7.971,0.51 16.224,5.208 16.224,0.192 v -2.94 c -6.252,0.003 -7.161,1.986 -7.161,2.28 z m 49.028997,-2.277 v 2.943 c 0,5.016 8.256,0.312 16.224,-0.189 6.615,-0.438 8.46,1.26 8.46,1.26 l -1.206,-6.687 c -0.063,-0.369 -1.5,-1.389 -6.063,-1.389 -5.487,0 -8.244,1.044 -9.243,1.401 v 3.51 c 0,0.804 -0.405,1.191 -1.014,1.437 -0.006,-0.303 -0.918,-2.286 -7.158,-2.286 z m -20.94,-3.039 c 12.828,0 25.866,0.672 27.564,2.607 0.135,0.153 0.186,-0.006 0.186,-0.123 v -6.804 c 0,-1.98 -13.437,-3.135 -27.759,-3.135 -14.313,0 -27.752997,1.161 -27.752997,3.135 v 6.804 c 0,0.117 0.057,0.276 0.195,0.123 1.707,-1.935 14.732997,-2.607 27.566997,-2.607 z m -11.439,-32.064 -1.299,-0.33 -0.105,0.159 -1.509,-0.663 c 0,0 1.113,-0.006 1.353,-0.012 0.126,0 0.132,-0.075 0.069,-0.141 -0.618,-0.603 -1.155,-1.131 -1.155,-1.131 0,0 0.615,0.228 1.488,0.558 0.096,0.039 0.135,-0.042 0.084,-0.105 -0.42,-0.612 -0.987,-1.449 -0.987,-1.449 0,0 1.209,0.813 1.455,0.972 0.075,0.063 0.141,0.006 0.114,-0.069 -0.33,-0.804 -0.693,-1.707 -0.693,-1.707 l 1.329,1.26 c 0.06,0.06 0.132,0.03 0.111,-0.063 -0.126,-0.6 -0.363,-1.701 -0.363,-1.701 l 0.969,1.431 c 0.057,0.081 0.135,0.06 0.135,-0.042 0.006,-0.282 0.033,-1.563 0.033,-1.563 0,0 0.408,0.939 0.618,1.428 0.042,0.093 0.12,0.105 0.168,-0.024 0.063,-0.156 0.504,-1.2 0.504,-1.2 l 0.057,1.623 -0.216,0.042 -0.276,1.956 c 1.938,-0.456 4.35,-3.774 6.207,-3.774 2.202,0 3.003,2.589 7.074,1.278 1.032,1.518 1.392,2.835 1.785,4.677 1.575,1.482 3.786,0.984 3.786,-0.579 0,-2.115 -2.301,-2.514 -2.301,-4.713 0,-0.978 0.687,-2.394 2.568,-2.394 0.996,0 2.442,0.426 3.288,0.426 0.99,0 1.2,-0.711 1.314,-1.02 0.09,-0.222 0.366,-0.15 0.336,0.03 -0.027,0.204 0.12,0.492 0.12,0.96 0,1.395 -2.028,1.572 -2.28,1.401 -0.102,-0.066 -0.177,0.045 -0.102,0.099 0.303,0.246 0.237,1.068 -0.129,1.596 -0.045,0.063 -0.099,0.057 -0.108,-0.006 -0.222,-0.996 -1.386,-2.223 -2.421,-2.223 -0.375,0 -1.131,0.213 -1.131,1.086 0,1.254 2.502,2.391 2.502,4.992 0,2.694 -2.667,3.339 -5.355,2.676 0.087,2.556 3.903,4.068 3.996,2.25 0.003,-0.129 0.075,-0.057 0.105,0 0.564,0.78 0.312,1.377 -0.411,1.677 0.669,0.303 0.786,1.644 0.975,2.442 0.297,1.197 1.566,0.54 1.635,0.504 0.063,-0.045 0.087,-0.006 0.063,0.066 -0.48,1.254 -1.764,0.78 -1.764,0.78 -0.672,0.468 0.141,0.894 0.75,1.071 0.093,0.024 0.093,0.087 0.018,0.117 -0.447,0.171 -1.407,0.468 -1.875,-0.333 -0.342,0.825 -1.05,0.813 -1.329,0.813 -0.492,0 -0.819,0.498 -0.702,1.176 0.006,0.063 -0.036,0.072 -0.069,0.042 -1.173,-0.774 -0.498,-1.686 -0.03,-1.917 -0.075,-0.051 -0.891,-0.384 -1.23,0.564 -0.03,0.069 -0.072,0.069 -0.099,0.006 -0.51,-1.359 0.606,-1.758 1.419,-1.419 -0.06,-0.186 -0.48,-0.852 -1.542,-0.645 -0.054,0.018 -0.075,0 -0.054,-0.069 0.174,-0.417 0.696,-1.032 1.659,-0.411 0.495,0.312 1.329,-0.135 1.41,-0.18 -1.701,-3.393 -5.022,-0.555 -5.763,-3.213 -0.015,-0.057 -0.075,-0.105 -0.126,0.045 -0.174,0.564 -1.623,0.606 -1.89,-0.513 -0.021,-0.081 0.015,-0.093 0.069,-0.042 0.21,0.213 0.663,0.405 1.26,-0.456 0.393,-0.567 0.447,-1.329 0.447,-1.845 0,-2.064 -2.064,-5.538 -5.283,-5.538 -2.031,0 -4.218,0.798 -5.838,1.974 l 1.509,0.342 c -0.141,1.533 -1.608,2.424 -2.958,2.043 l 0.228,-1.746 c -0.228,0.066 -0.822,0.282 -1.14,0.732 -0.03,0.036 -0.069,0.024 -0.084,-0.015 -0.27,-0.987 0.546,-1.485 0.801,-1.614 0.03,-0.021 0.03,-0.045 -0.027,-0.045 -0.726,-0.03 -1.14,0.51 -1.263,0.693 -0.021,0.033 -0.048,0.024 -0.057,0 -0.063,-0.204 -0.186,-0.714 0.153,-1.077 z m 4.485,11.811 c -0.579,0.702 -1.086,0.033 -1.845,0.033 -0.714,0 -0.831,0.6 -0.849,0.834 -0.006,0.045 -0.027,0.057 -0.06,0.012 -0.804,-1.107 0.099,-1.701 0.621,-1.788 -0.075,-0.075 -0.864,-0.609 -1.374,0.123 -0.036,0.054 -0.084,0.03 -0.084,-0.036 -0.03,-1.377 1.062,-1.47 1.776,-0.867 0.135,-0.522 -0.201,-0.873 -0.783,-0.897 -0.069,0 -0.081,-0.048 -0.057,-0.075 0.246,-0.264 0.483,-0.381 0.717,-0.381 0.762,0 0.861,0.96 1.359,0.96 0.747,0 1.806,-1.008 1.911,-1.113 -0.024,-0.06 -0.744,-1.998 -0.597,-3.159 0.006,-0.051 -0.021,-0.057 -0.057,-0.036 -0.357,0.201 -1.278,0.189 -1.278,-0.936 0,-0.087 0.027,-0.093 0.075,-0.024 0.405,0.558 1.056,-0.069 1.386,-0.438 0.348,-0.387 2.232,-3.135 4.746,-3.135 0.552,0.006 1.263,0.306 1.836,0.708 -0.867,1.056 -0.003,2.064 0.636,1.935 0.078,-0.012 0.093,0.06 0.021,0.081 -3.324,1.254 -4.806,1.752 -4.806,4.53 0,1.452 0.495,2.256 1.353,2.064 0.06,-0.012 0.075,0.018 0.033,0.063 -0.306,0.369 -0.663,0.492 -0.954,0.492 -0.696,0 -0.822,-0.381 -1.191,-0.381 -0.375,0 -1.614,0.726 -1.614,1.329 0,0.234 0.147,0.546 0.582,0.831 0.03,0.018 0.012,0.042 -0.009,0.042 -0.285,0.072 -1.266,0.156 -1.494,-0.771 z m 8.745,-27.042 c -1.041,-0.063 -1.701,0.171 -1.677,0.498 0.516,0.534 1.188,0.477 1.677,-0.498 z m -3.825,2.565 c 0.726,-0.186 1.539,-0.096 1.62,-0.066 0.12,0.045 0.114,0.216 -0.021,0.234 -1.527,0.189 -1.596,0.897 -2.577,0.897 -0.642,0 -1.335,-0.645 -1.074,-1.596 0.033,-0.123 0.132,-0.129 0.162,-0.012 0.096,0.402 0.693,0.849 1.89,0.543 z m -19.862997,33.912 c 1.011,1.305 1.986,0.072 3.315,0.072 0.651,0 1.439997,0.222 1.589997,1.527 0.006,0.063 0.063,0.084 0.126,0 1.449,-1.98 -0.204,-3.099 -1.148997,-3.24 0.204,-0.186 1.616997,-1.059 2.519997,0.225 0.051,0.069 0.147,0.051 0.147,-0.054 0,-2.502 -1.884,-2.679 -3.239997,-1.593 -0.252,-0.978 0.483,-1.623 1.427997,-1.623 0.111,0 0.153,-0.072 0.096,-0.141 -1.679997,-1.806 -2.936997,0.462 -3.218997,0.819 -0.669,0.891 -3.072,-0.786 -4.023,-1.782 0,0 2.112,-2.22 2.112,-4.242 0,-0.123 -0.012,-0.294 -0.012,-0.363 0,-0.063 0.03,-0.087 0.093,-0.06 0.21,0.117 0.504,0.201 0.777,0.201 0.483,0 1.398,-0.153 1.398,-1.875 0,-0.129 -0.057,-0.123 -0.111,-0.051 -0.249,0.369 -0.534,0.444 -0.75,0.444 -1.704,0 -5.274,-5.7 -9.486,-5.7 -1.098,0 -3.177,0.795 -4.227,1.932 0.501,0.303 0.603,0.924 0.552,1.371 -0.075,0.717 -0.648,1.074 -1.236,1.248 -0.105,0.024 -0.12,0.099 0,0.147 2.118,0.813 5.991,2.277 6.87,3.033 1.038,0.897 0.831,2.592 0.234,4.938 -0.582,2.25 -1.827,1.938 -2.283,1.869 -0.069,-0.012 -0.09,0.03 -0.051,0.081 0.546,0.687 1.218,0.927 1.785,0.927 1.107,0 1.518,-0.687 2.091,-0.687 0.957,0 2.973,1.377 2.973,2.43 0,0.588 -0.462,1.125 -1.05,1.506 -0.042,0.03 -0.036,0.072 0.021,0.084 0.462,0.09 2.346,0.249 2.709,-1.443 z m 46.502997,1.455 c 0.054,-0.012 0.069,-0.06 0.027,-0.084 -0.594,-0.381 -1.059,-0.918 -1.059,-1.506 0,-1.047 2.022,-2.43 2.982,-2.43 0.564,0 0.975,0.687 2.082,0.687 0.57,0 1.239,-0.234 1.797,-0.927 0.045,-0.057 0.012,-0.093 -0.054,-0.081 -0.456,0.069 -1.698,0.381 -2.283,-1.869 -0.6,-2.337 -0.813,-4.038 0.225,-4.938 0.885,-0.75 4.746,-2.22 6.873,-3.033 0.117,-0.048 0.105,-0.123 0,-0.147 -0.582,-0.162 -1.161,-0.516 -1.242,-1.248 -0.048,-0.447 0.051,-1.062 0.561,-1.371 -1.059,-1.137 -3.135,-1.932 -4.227,-1.932 -4.212,0 -7.788,5.7 -9.492,5.7 -0.21,0 -0.492,-0.075 -0.744,-0.438 -0.06,-0.078 -0.111,-0.084 -0.111,0.045 0,1.722 0.912,1.875 1.389,1.875 0.285,0.006 0.579,-0.078 0.786,-0.195 0.06,-0.039 0.081,-0.012 0.081,0.054 0,0.069 -0.012,0.246 -0.012,0.363 0,2.034 2.121,4.248 2.121,4.248 -0.96,0.996 -3.357,2.673 -4.029,1.782 -0.285,-0.363 -1.539,-2.625 -3.213,-0.819 -0.06,0.063 -0.018,0.141 0.099,0.141 0.936,0 1.677,0.645 1.425,1.623 -1.365,-1.086 -3.237,-0.915 -3.237,1.593 0,0.093 0.096,0.123 0.15,0.054 0.891,-1.284 2.313,-0.417 2.517,-0.231 -0.945,0.147 -2.592,1.26 -1.149,3.24 0.057,0.084 0.111,0.066 0.126,0 0.15,-1.299 0.933,-1.521 1.581,-1.521 1.32,0 2.301,1.224 3.312,-0.072 0.372,1.674 2.262,1.515 2.718,1.437 z m -34.056,-32.898 c -0.132,0.186 -0.573,0 -0.741,-0.078 -0.045,-0.021 -0.051,0 -0.036,0.03 0.105,0.24 0.531,0.945 1.167,0.945 0.285,0 0.708,-0.171 0.822,-0.357 0,0 2.475,0.807 3.699,1.146 -0.477,0.633 -0.771,1.395 -0.831,2.223 -0.987,-0.606 -4.938,-2.727 -4.938,-2.727 l -1.233,1.677 c -0.201,0.279 -1.182,-0.435 -0.978,-0.711 l 0.936,-1.278 c -0.306,-0.327 -1.056,-0.123 -1.257,-0.063 -0.03,0.006 -0.057,-0.006 -0.03,-0.06 0.12,-0.246 0.588,-1.029 1.749,-0.678 0.009,-0.714 -1.053,-0.486 -1.329,-0.408 -0.036,0.009 -0.051,-0.006 -0.015,-0.042 0.288,-0.312 1.149,-1.002 2.106,-0.435 l 0.42,-0.579 -0.843,-0.891 0.531,-0.726 0.594,0.807 4.566,-6.255 c 0.114,-0.159 1.017,-0.417 1.362,-0.489 0.036,0.348 0.066,1.284 -0.039,1.437 l -4.491,6.312 0.945,0.306 -0.519,0.732 -1.119,-0.516 z m 16.005,-1.02 c 0,0.579 0.357,1.419 1.119,1.179 0.042,-0.018 0.078,-0.006 0.069,0.033 -0.12,0.639 -1.26,1.224 -1.788,0.471 -0.456,0.972 -0.342,1.89 0.648,2.43 0.057,0.033 0.066,0.099 0.009,0.15 -0.6,0.435 -1.53,0.33 -1.959,-0.498 -0.822,0.612 -0.699,1.929 -0.201,2.373 0,0.006 -2.268,1.35 -4.32,0.387 -1.365,-0.654 -2.472,-1.488 -4.236,-1.353 0.246,-2.466 1.479,-3.117 3.744,-3.468 1.812,-0.294 2.049,-1.125 1.788,-1.752 -0.618,-0.165 -1.746,0.399 -1.746,0.399 -0.201,-0.339 0.093,-0.69 0.093,-0.69 -0.117,-0.135 -0.168,-0.591 -0.168,-0.591 1.266,0 1.491,-0.282 1.491,-0.282 0.231,-1.314 -1.116,-1.455 -2.145,-0.744 -0.477,-0.423 -0.396,-0.984 -0.396,-0.984 -0.141,-0.063 -0.231,-0.288 -0.231,-0.381 0,-0.312 1.5,-1.155 1.89,-1.26 0.096,-0.438 0.639,-1.05 2.241,-0.897 0.192,-0.429 -0.117,-1.968 -0.312,-2.385 -0.063,-0.129 0.033,-0.192 0.174,-0.105 0.558,0.351 1.113,1.653 1.488,1.68 0,0 1.8,-0.936 1.881,-0.885 0.084,0.054 0.336,2.052 0.336,2.052 0.237,0.297 1.626,0.006 2.229,0.273 0.156,0.063 0.144,0.177 0.009,0.195 -0.447,0.072 -1.893,0.699 -2.13,1.101 0.813,1.218 0.423,3.048 0.423,3.552 z"
   id="path914" />
</svg>
