<?xml version="1.0" encoding="UTF-8" standalone="no"?>
<svg
   xmlns:dc="http://purl.org/dc/elements/1.1/"
   xmlns:cc="http://creativecommons.org/ns#"
   xmlns:rdf="http://www.w3.org/1999/02/22-rdf-syntax-ns#"
   xmlns:svg="http://www.w3.org/2000/svg"
   xmlns="http://www.w3.org/2000/svg"
   xmlns:sodipodi="http://sodipodi.sourceforge.net/DTD/sodipodi-0.dtd"
   xmlns:inkscape="http://www.inkscape.org/namespaces/inkscape"
   inkscape:version="1.0 (4035a4f, 2020-05-01)"
   sodipodi:docname="nldigital.svg"
   id="svg1003"
   version="1.1"
   height="198.14999"
   width="198.14999">
  <metadata
     id="metadata1009">
    <rdf:RDF>
      <cc:Work
         rdf:about="">
        <dc:format>image/svg+xml</dc:format>
        <dc:type
           rdf:resource="http://purl.org/dc/dcmitype/StillImage" />
        <dc:title></dc:title>
      </cc:Work>
    </rdf:RDF>
  </metadata>
  <defs
     id="defs1007" />
  <sodipodi:namedview
     inkscape:current-layer="svg1003"
     inkscape:window-maximized="0"
     inkscape:window-y="23"
     inkscape:window-x="0"
     inkscape:cy="91.553866"
     inkscape:cx="99.074997"
     inkscape:zoom="2.771108"
     showgrid="false"
     id="namedview1005"
     inkscape:window-height="810"
     inkscape:window-width="1440"
     inkscape:pageshadow="2"
     inkscape:pageopacity="0"
     guidetolerance="10"
     gridtolerance="10"
     objecttolerance="10"
     borderopacity="1"
     bordercolor="#666666"
     pagecolor="#ffffff" />
  <style
     id="style993">.st0{fill:#241f48}</style>
  <path
     id="path995"
     d="m 85.240866,79.390627 c -0.77,0 -1.39,0.62 -1.39,1.39 v 12.89 c -2.21,-2.94 -5.54,-4.82 -9.27,-4.82 -6.62,0 -12.01,5.93 -12.01,13.210003 0,7.28 5.39,13.21 12.01,13.21 3.73,0 7.06,-1.88 9.27,-4.82 v 3.22 c 0,0.77 0.62,1.39 1.39,1.39 0.77,0 1.39,-0.62 1.39,-1.39 V 80.780627 c 0,-0.77 -0.62,-1.39 -1.39,-1.39 z m -10.66,33.110003 c -5.09,0 -9.23,-4.68 -9.23,-10.43 0,-5.750003 4.14,-10.430003 9.23,-10.430003 5.09,0 9.23,4.68 9.23,10.430003 0,5.75 -4.14,10.43 -9.23,10.43 z m 122.540004,2.59 c -0.77,0 -1.39,-0.62 -1.39,-1.39 V 80.780627 c 0,-0.77 0.62,-1.39 1.39,-1.39 0.77,0 1.39,0.62 1.39,1.39 v 32.920003 c 0,0.77 -0.62,1.39 -1.39,1.39 z m -99.670004,0 c -0.77,0 -1.39,-0.62 -1.39,-1.39 V 90.430627 c 0,-0.77 0.62,-1.39 1.39,-1.39 0.77,0 1.39,0.62 1.39,1.39 v 23.270003 c 0,0.77 -0.62,1.39 -1.39,1.39 z m 42.280004,0 c -0.77,0 -1.39,-0.62 -1.39,-1.39 V 90.430627 c 0,-0.77 0.62,-1.39 1.39,-1.39 0.77,0 1.39,0.62 1.39,1.39 v 23.270003 c 0,0.77 -0.62,1.39 -1.39,1.39 z m 22.08,-1.56 a 1.39,1.39 0 0 0 -1.59,-1.16 c -1.56,0.24 -2.87,-0.04 -3.78,-0.82 -0.86,-0.74 -1.38,-1.93 -1.38,-3.19 V 91.900627 h 3.87 c 0.77,0 1.39,-0.62 1.39,-1.39 0,-0.77 -0.62,-1.39 -1.39,-1.39 h -3.87 v -5.19 c 0,-0.77 -0.62,-1.39 -1.39,-1.39 -0.77,0 -1.39,0.62 -1.39,1.39 v 5.18 h -2.84 c -0.77,0 -1.39,0.62 -1.39,1.39 0,0.77 0.62,1.39 1.39,1.39 h 2.84 v 16.450003 c 0,2.09 0.86,4.03 2.35,5.31 0.89,0.76 2.35,1.58 4.53,1.58 0.47,0 0.96,-0.04 1.49,-0.12 0.76,-0.11 1.28,-0.83 1.16,-1.58 z"
     class="st0" />
  <circle
     id="circle997"
     r="1.73"
     cy="82.20063"
     cx="139.73087"
     class="st0" />
  <circle
     id="circle999"
     r="1.73"
     cy="82.20063"
     cx="97.450859"
     class="st0" />
  <path
     id="path1001"
     d="m 25.580866,89.010627 c -0.79,0 -1.44,0.64 -1.44,1.43 V 116.77063 L 2.9208665,89.550627 c -0.01,-0.01 -0.01,-0.02 -0.02,-0.02 v -0.01 a 1.44,1.44 0 0 0 -1.1,-0.51 c -0.8,0 -1.44000001,0.64 -1.44000001,1.44 v 30.500003 c 0,0.79 0.64000001,1.43 1.44000001,1.43 0.8,0 1.44,-0.64 1.44,-1.43 V 94.600627 L 24.460866,121.84063 c 0.01,0.01 0.01,0.02 0.02,0.03 l 0.01,0.01 a 1.438,1.438 0 0 0 2.54,-0.92 V 90.460627 c -0.01,-0.81 -0.65,-1.45 -1.45,-1.45 z m 29.67,32.920003 h -18.61 c -0.76,0 -1.38,-0.62 -1.38,-1.38 V 90.430627 c 0,-0.76 0.62,-1.38 1.38,-1.38 0.76,0 1.38,0.62 1.38,1.38 v 28.750003 h 17.23 a 1.375,1.375 0 1 1 0,2.75 z m 30.33,0.01 h -21.46 c -0.77,0 -1.39,-0.62 -1.39,-1.39 0,-0.77 0.62,-1.39 1.39,-1.39 h 21.46 c 0.77,0 1.39,0.62 1.39,1.39 0,0.77 -0.63,1.39 -1.39,1.39 z m 39.170004,-2.76 -15.7,-0.02 4.44,-6.45 c 1.73,0.97 3.66,1.49 5.68,1.5 h 0.04 c 6.66,0 12.09,-5.66 12.11,-12.63 0.01,-3.680003 -1.49,-7.010003 -3.88,-9.330003 l 2.97,-4.14 c 0.45,-0.62 0.31,-1.49 -0.32,-1.94 -0.62,-0.45 -1.49,-0.31 -1.94,0.32 l -2.92,4.06 c -1.76,-1.06 -3.8,-1.67 -5.97,-1.68 h -0.04 c -3.23,0 -6.27,1.32 -8.56,3.71 -2.28,2.38 -3.54,5.55 -3.55,8.920003 -0.01,3.37 1.23,6.55 3.49,8.94 0.21,0.22 0.42,0.43 0.64,0.63 l -5.98,8.69 c -0.29,0.43 -0.33,0.98 -0.09,1.44 0.24,0.46 0.71,0.74 1.23,0.74 l 18.34,0.03 c 0.62,0 0.91,0.43 1,0.62 0.09,0.18 0.27,0.67 -0.1,1.17 a 1.389,1.389 0 0 0 2.24,1.64 c 0.88,-1.19 1.01,-2.75 0.34,-4.07 a 3.848,3.848 0 0 0 -3.47,-2.15 z m -14.89,-17.68 c 0.01,-2.660003 1,-5.150003 2.79,-7.020003 1.76,-1.84 4.09,-2.85 6.56,-2.85 h 0.03 c 5.15,0.02 9.33,4.48 9.31,9.940003 -0.02,5.45 -4.21,9.88 -9.35,9.88 h -0.03 c -2.48,-0.01 -4.82,-1.04 -6.58,-2.9 -1.76,-1.89 -2.74,-4.39 -2.73,-7.05 z m 67.54,-12.690003 c -4.56,0 -8.16,2.69 -9.86,4.99 -0.46,0.62 -0.33,1.49 0.29,1.95 0.62,0.46 1.49,0.33 1.95,-0.29 1.32,-1.78 4.1,-3.86 7.62,-3.86 4.89,0 6.66,3.27 6.69,6.36 0.01,0.43 -0.12,0.64 -0.31,0.79 -0.03,0.03 -0.07,0.05 -0.11,0.08 -0.01,0.01 -0.02,0.01 -0.03,0.02 -0.03,0.02 -0.06,0.04 -0.1,0.06 -1.12,0.63 -3.82,1.260003 -5.42,1.580003 -4.82,0.96 -11.41,2.27 -11.41,8.08 0,4.25 3.32,6.68 9.11,6.68 2.6,0 5.95,-0.93 8.28,-3.18 v 1.64 c 0,0.77 0.62,1.39 1.39,1.39 0.77,0 1.39,-0.62 1.39,-1.39 V 98.050627 c -0.01,-4.6 -2.94,-9.24 -9.48,-9.24 z m -1.58,23.640003 c -4.2,0 -6.32,-1.31 -6.32,-3.9 0,-3.27 3.8,-4.28 9.17,-5.35 2.08,-0.41 4.01,-0.8 5.43,-1.47 v 3.39 c -0.01,7.25 -8.2,7.33 -8.28,7.33 z"
     class="st0" />
</svg>
