<?xml version="1.0" encoding="UTF-8" standalone="no"?>
<svg
   xmlns:dc="http://purl.org/dc/elements/1.1/"
   xmlns:cc="http://creativecommons.org/ns#"
   xmlns:rdf="http://www.w3.org/1999/02/22-rdf-syntax-ns#"
   xmlns:svg="http://www.w3.org/2000/svg"
   xmlns="http://www.w3.org/2000/svg"
   xmlns:sodipodi="http://sodipodi.sourceforge.net/DTD/sodipodi-0.dtd"
   xmlns:inkscape="http://www.inkscape.org/namespaces/inkscape"
   inkscape:version="1.0 (4035a4f, 2020-05-01)"
   sodipodi:docname="om.svg"
   y="0px"
   xml:space="preserve"
   x="0px"
   width="650"
   viewBox="0 0 650 650"
   version="1.1"
   id="Laag_1"
   height="650"><metadata
   id="metadata1810"><rdf:RDF><cc:Work
       rdf:about=""><dc:format>image/svg+xml</dc:format><dc:type
         rdf:resource="http://purl.org/dc/dcmitype/StillImage" /><dc:title>logo-openbaar-ministerie</dc:title></cc:Work></rdf:RDF></metadata><defs
   id="defs1808" /><sodipodi:namedview
   inkscape:current-layer="Laag_1"
   inkscape:window-maximized="0"
   inkscape:window-y="23"
   inkscape:window-x="0"
   inkscape:cy="308.71823"
   inkscape:cx="300.86096"
   inkscape:zoom="0.83972969"
   showgrid="false"
   id="namedview1806"
   inkscape:window-height="810"
   inkscape:window-width="1440"
   inkscape:pageshadow="2"
   inkscape:pageopacity="0"
   guidetolerance="10"
   gridtolerance="10"
   objecttolerance="10"
   borderopacity="1"
   bordercolor="#666666"
   pagecolor="#ffffff" />
<style
   id="style1718"
   type="text/css">
	.st0{fill:#ED6A00;}
	.st1{display:none;}
	.st2{display:inline;}
	.st3{display:inline;fill:#ED6A00;}
</style>
<title
   id="title1720">logo-openbaar-ministerie</title>
<g
   transform="translate(0.896685,286.77182)"
   id="_843bdb02-be42-4d8a-9333-7c91504d04b6">
	<g
   id="_3eb42873-4996-4a47-8e8a-4d6329b4f791">
		<path
   id="path1722"
   d="m 300.68,33.82 c 1.04,0 1.73,0.18 1.73,1.22 v 1.75 c 0,1 -0.51,1.22 -1.73,1.22 h -8.25 v -4.19 c -0.01,0 8.25,0 8.25,0 z m -12.03,12.57 h 3.61 v -5.76 h 3.49 l 6.37,5.76 h 5.33 l -7.05,-5.76 h 1.89 c 2.41,0 3.44,-0.87 3.44,-3 V 34 c 0,-2.1 -1.04,-3 -3.44,-3 h -13.65 z m -25.14,0 h 3.64 l 1.89,-3.32 h 9.94 l 1.89,3.32 H 285 L 275.88,31.2 h -3.44 z m 7.06,-6.11 3.48,-6.28 3.44,6.28 z m -31.32,6.11 h 3.62 l 1.89,-3.32 h 9.98 l 1.89,3.32 h 4.13 L 251.64,31.2 h -3.62 z m 7.06,-6.11 3.44,-6.28 3.44,6.28 z m -27.54,6.11 h 12.56 c 3.11,0 4.65,-1.05 4.65,-3 V 41.5 c 0.08,-1.54 -1.06,-2.87 -2.58,-3 1.72,-0.35 2.58,-1.23 2.58,-2.62 V 34 c 0,-2.1 -1.2,-3 -3.62,-3 H 218.94 Z M 230.6,33.65 c 1.2,0 1.72,0.17 1.72,1 v 1.39 c 0,0.87 -0.51,1.05 -1.72,1.05 h -8.09 v -3.44 z m 0,6.11 c 1.2,0 1.72,0.17 1.72,1.39 v 1.23 c 0,1 -0.51,1.39 -1.72,1.39 h -8.09 v -3.83 z m -36.48,6.63 h 3.27 v -10.3 l 12.74,10.3 h 2.57 V 31.2 h -3.26 V 41.33 L 196.74,31.2 h -2.55 z m -21.5,0 h 16.35 V 43.6 h -12.52 v -3.84 h 7.23 v -2.62 h -7.23 v -3.32 h 12.38 v -2.79 h -16.17 z m -22.38,0 h 3.62 v -5.93 h 9.98 c 2.42,0 3.44,-0.88 3.44,-3 v -3.29 c 0,-2.09 -0.99,-3 -3.44,-3 h -13.38 z m 12.04,-12.57 c 0.99,0 1.73,0.18 1.73,1.22 v 1.58 c 0,1 -0.52,1.22 -1.73,1.22 h -8.22 v -4 z M 128.21,34 h 12.05 v 9.42 h -12.01 z m -3.79,0.7 v 8 c 0,2.8 0.87,3.67 3.94,3.67 h 11.7 c 2.96,0 3.94,-0.7 3.94,-3.67 v -8 c 0,-3 -0.86,-3.67 -3.94,-3.67 h -11.64 c -2.96,0.17 -3.94,0.87 -3.94,3.67" />
		<path
   id="path1724"
   d="m 414.06,33.82 v 1.57 l 3.1,-0.69 v -0.35 c 0,-2.62 -1.2,-3.32 -3.94,-3.32 h -8.95 c -2.96,0 -3.94,0.7 -3.94,3.67 v 1.74 c 0,2.79 1.04,3.67 3.94,3.67 h 9.63 v 3.49 h -10.98 v -1.75 l -3.26,0.7 v 0.39 c 0,2.79 0.99,3.66 3.94,3.66 h 9.81 c 2.96,0 3.94,-0.69 3.94,-3.66 v -2.1 c 0,-2.79 -0.86,-3.66 -3.94,-3.66 h -9.47 v -3.36 z m -24.22,12.57 h 3.61 V 31.2 h -3.61 z m -25.3,0 h 3.27 v -10.3 l 12.73,10.3 h 2.42 V 31.2 h -3.27 V 41.33 L 366.94,31.2 h -2.57 v 15.19 z m -10.33,0 h 3.65 V 31.2 h -3.65 z m 0,0 h 3.65 V 31.2 h -3.65 z m -27.19,0 h 2.96 v -10.3 l 6.7,8.55 h 0.69 l 6.68,-8.7 v 10.45 h 3.44 V 31.2 h -2.96 l -7.23,9.08 -7.39,-9.08 h -2.96 z" />
		<path
   id="path1726"
   d="m 499.97,46.39 h 16.36 V 43.6 h -12.54 v -3.84 h 7.24 v -2.62 h -7.24 v -3.32 h 12.39 v -2.79 h -16.21 z m -10.32,0 h 3.62 V 31.2 h -3.62 z M 478.29,33.82 c 1.04,0 1.73,0.18 1.73,1.22 v 1.75 c 0,1 -0.52,1.22 -1.73,1.22 h -8.43 v -4.19 c 0,0 8.43,0 8.43,0 z m -12.05,12.57 h 3.62 v -5.76 h 3.44 l 6.19,5.76 h 5.34 l -7.06,-5.76 h 2.06 c 2.42,0 3.44,-0.87 3.44,-3 V 34 c 0,-2.1 -0.99,-3 -3.44,-3 h -13.6 v 15.39 z m -21.34,0 h 16.35 V 43.6 h -12.56 v -3.84 h 7.23 v -2.62 h -7.23 v -3.32 h 12.39 V 31.03 H 444.9 Z M 432.85,33.82 h 7.23 v -2.79 h -18.06 v 2.79 h 7.23 v 12.57 h 3.61 z" />
	</g>
</g>
<rect
   y="286.77182"
   id="rect1730"
   x="0.83668494"
   width="650"
   height="8.7299995"
   class="st0" />
<g
   id="engels"
   class="st1">
	<path
   id="path1732"
   d="m 198.84,31.03 h 2.39 l 10.56,8.85 c 0.62,0.49 1.19,1.04 1.72,1.63 -0.09,-1.25 -0.14,-2.12 -0.14,-2.6 v -7.89 h 3.14 V 46 h -2.39 l -11,-9.28 c -0.47,-0.37 -0.91,-0.78 -1.31,-1.22 0.09,0.79 0.14,1.59 0.14,2.39 v 8.12 h -3.14 z"
   class="st2" />
	<path
   id="path1734"
   d="m 223.8,31.03 h 15.4 v 2.53 h -11.88 v 3.3 h 6.93 v 2.56 h -6.93 v 3.73 h 12.02 v 2.82 H 223.8 Z"
   class="st2" />
	<path
   id="path1736"
   d="m 254.6,46.01 h -3.5 V 33.68 h -6.9 v -2.65 h 17.31 v 2.68 h -6.92 l 0.01,12.3 z"
   class="st2" />
	<path
   id="path1738"
   d="m 267.13,31.03 h 3.49 v 5.83 h 10.91 v -5.83 h 3.52 v 14.98 h -3.52 v -6.46 h -10.91 v 6.46 h -3.49 z"
   class="st2" />
	<path
   id="path1740"
   d="m 292.39,31.03 h 15.4 v 2.53 h -11.9 v 3.3 h 6.92 v 2.56 h -6.92 v 3.73 h 12.01 v 2.82 h -15.51 z"
   class="st2" />
	<path
   id="path1742"
   d="m 314.56,31.03 h 12.86 c 2.3,0 3.38,0.82 3.38,2.91 v 3.52 c 0,2.09 -1.1,2.92 -3.38,2.92 h -1.98 l 6.93,5.67 h -5 l -6.05,-5.67 h -3.3 v 5.67 h -3.43 z m 3.43,2.6 v 4.19 h 7.85 c 1.1,0 1.57,-0.21 1.57,-1.2 v -1.84 c 0,-0.99 -0.49,-1.19 -1.57,-1.19 z"
   class="st2" />
	<path
   id="path1744"
   d="m 338.59,31.03 h 3.49 V 43.2 h 11.26 v 2.82 h -14.75 z"
   class="st2" />
	<path
   id="path1746"
   d="m 366.4,31.03 h 3.38 l 8.61,15.02 h -3.89 l -1.8,-3.3 h -9.51 l -1.75,3.3 h -3.49 z m 4.81,9.02 -3.23,-6.1 -3.3,6.1 z"
   class="st2" />
	<path
   id="path1748"
   d="m 384.25,31.03 h 2.35 l 10.6,8.8 c 0.62,0.49 1.19,1.04 1.72,1.63 -0.09,-1.25 -0.15,-2.12 -0.15,-2.6 v -7.83 h 3.15 v 14.98 h -2.39 l -11,-9.28 c -0.45,-0.37 -0.87,-0.78 -1.25,-1.22 0.11,1.17 0.14,1.96 0.14,2.39 v 8.12 h -3.15 z"
   class="st2" />
	<path
   id="path1750"
   d="m 409.24,31.03 h 9.66 c 5.62,0 8.58,2.77 8.58,7.43 0.12,2.58 -1.14,5.03 -3.3,6.43 -1.46,0.9 -3.5,1.1 -6.17,1.1 h -8.8 z m 7.99,12.2 c 4.4,0 6.6,-1.1 6.6,-4.83 0,-3.06 -1.65,-4.69 -4.94,-4.69 h -6.2 v 9.51 l 4.54,0.01 z"
   class="st2" />
	<path
   id="path1752"
   d="m 437.2,33.63 v 3.22 h 9.37 c 2.83,0 3.75,0.73 3.75,3.55 v 2.07 c 0,2.82 -0.92,3.54 -3.75,3.54 h -9.26 c -2.82,0 -3.75,-0.73 -3.75,-3.54 v -0.44 l 3.09,-0.65 v 1.78 h 10.61 v -3.4 h -9.37 c -2.82,0 -3.72,-0.73 -3.72,-3.55 v -1.66 c 0,-2.82 0.9,-3.55 3.72,-3.55 h 8.53 c 2.68,0 3.73,0.7 3.73,3.3 v 0.33 l -3.09,0.73 v -1.73 h -9.86 z"
   class="st2" />
	<path
   id="path1754"
   d="m 57.17,66 h 12.86 c 2.3,0 3.38,0.81 3.38,2.9 v 3.3 c 0,2.1 -1.1,2.92 -3.38,2.92 H 60.6 v 5.85 h -3.43 z m 3.43,2.58 v 3.98 h 7.85 c 1.1,0 1.57,-0.2 1.57,-1.19 v -1.61 c 0,-0.99 -0.49,-1.19 -1.57,-1.19 H 60.6 Z"
   class="st2" />
	<path
   id="path1756"
   d="m 83,78.19 h 9.9 V 66 h 3.5 v 11.46 c 0,2.82 -0.9,3.55 -3.73,3.55 h -9.48 c -2.83,0 -3.73,-0.74 -3.73,-3.55 V 66 H 83 Z"
   class="st2" />
	<path
   id="path1758"
   d="m 103.8,66 h 12.86 c 2.3,0 3.38,0.81 3.38,2.9 v 1.84 c 0,1.45 -0.92,2.32 -2.59,2.53 1.53,0.04 2.74,1.3 2.71,2.84 0,0.02 0,0.03 0,0.05 v 1.91 c 0,2.01 -1.49,2.95 -4.4,2.95 H 103.8 Z m 3.4,2.45 v 3.57 h 7.97 c 1.1,0 1.61,-0.2 1.61,-1.1 v -1.38 c 0,-0.88 -0.53,-1.1 -1.61,-1.1 l -7.97,0.01 z m 0,6.05 v 3.85 h 7.97 c 1.2,0 1.69,-0.23 1.69,-1.33 v -1.1 c 0,-1.1 -0.49,-1.34 -1.69,-1.34 z"
   class="st2" />
	<path
   id="path1760"
   d="m 127,66 h 3.49 v 12.19 h 11.26 v 2.83 H 127 Z"
   class="st2" />
	<path
   id="path1762"
   d="m 147.71,66 h 3.49 v 15.01 h -3.5 z"
   class="st2" />
	<path
   id="path1764"
   d="m 161.79,68.67 v 9.51 h 9.43 v -3.23 l 3.5,0.73 v 1.78 c 0,2.82 -0.9,3.55 -3.73,3.55 h -8.96 c -2.82,0 -3.72,-0.74 -3.72,-3.55 v -7.91 c 0,-2.82 0.9,-3.54 3.72,-3.54 H 171 c 2.83,0 3.73,0.73 3.73,3.54 v 1.43 l -3.5,0.55 v -2.86 c 0,0 -9.44,0 -9.44,0 z"
   class="st2" />
	<path
   id="path1766"
   d="m 193.2,66 h 12.86 c 2.3,0 3.38,0.81 3.38,2.9 v 3.3 c 0,2.1 -1.1,2.92 -3.38,2.92 h -9.43 v 5.85 h -3.43 z m 3.43,2.58 v 3.98 h 7.85 c 1.1,0 1.57,-0.2 1.57,-1.19 v -1.61 c 0,-0.99 -0.49,-1.19 -1.57,-1.19 h -7.85 z"
   class="st2" />
	<path
   id="path1768"
   d="m 215.56,66 h 12.86 c 2.3,0 3.38,0.81 3.38,2.9 v 3.52 c 0,2.1 -1.1,2.92 -3.38,2.92 h -1.98 l 6.93,5.68 h -5.01 l -6.05,-5.68 h -3.3 v 5.68 h -3.43 z m 3.43,2.58 v 4.19 h 7.85 c 1.1,0 1.57,-0.21 1.57,-1.2 v -1.8 c 0,-0.99 -0.49,-1.19 -1.57,-1.19 z"
   class="st2" />
	<path
   id="path1770"
   d="m 242.68,66 h 11.07 c 2.82,0 3.72,0.73 3.72,3.54 v 7.92 c 0,2.82 -0.9,3.55 -3.72,3.55 h -11.07 c -2.82,0 -3.72,-0.74 -3.72,-3.55 v -7.91 c 0,-2.82 0.9,-3.55 3.72,-3.55 z m 11.29,12.19 V 68.68 H 242.5 v 9.51 z"
   class="st2" />
	<path
   id="path1772"
   d="m 268.01,68.62 v 3.22 h 9.37 c 2.82,0 3.75,0.73 3.75,3.55 v 2.07 c 0,2.82 -0.94,3.55 -3.75,3.55 h -9.28 c -2.83,0 -3.75,-0.74 -3.75,-3.55 v -0.41 l 3.08,-0.64 v 1.77 h 10.63 v -3.43 h -9.37 c -2.83,0 -3.73,-0.73 -3.73,-3.55 v -1.65 c 0,-2.82 0.9,-3.54 3.73,-3.54 h 8.52 c 2.67,0 3.72,0.69 3.72,3.3 v 0.33 l -3.08,0.73 v -1.75 h -9.84 z"
   class="st2" />
	<path
   id="path1774"
   d="m 288.18,66 h 15.4 v 2.55 h -11.9 v 3.3 h 6.92 v 2.55 h -6.92 v 3.73 h 12.01 v 2.83 h -15.51 z"
   class="st2" />
	<path
   id="path1776"
   d="m 313.67,68.67 v 9.51 h 9.43 v -3.23 l 3.5,0.73 v 1.78 c 0,2.82 -0.9,3.55 -3.73,3.55 h -8.95 c -2.83,0 -3.73,-0.74 -3.73,-3.55 v -7.91 c 0,-2.82 0.9,-3.54 3.73,-3.54 h 8.95 c 2.83,0 3.73,0.73 3.73,3.54 v 1.43 l -3.5,0.55 v -2.86 c 0,0 -9.43,0 -9.43,0 z"
   class="st2" />
	<path
   id="path1778"
   d="m 337.1,78.19 h 9.95 V 66 h 3.49 v 11.46 c 0,2.82 -0.9,3.55 -3.72,3.55 h -9.49 c -2.82,0 -3.72,-0.74 -3.72,-3.55 V 66 h 3.49 v 12.19 z"
   class="st2" />
	<path
   id="path1780"
   d="m 366.55,81.01 h -3.49 V 68.67 h -6.9 V 66 h 17.31 v 2.67 h -6.93 z"
   class="st2" />
	<path
   id="path1782"
   d="m 379.05,66 h 3.5 v 15.01 h -3.5 z"
   class="st2" />
	<path
   id="path1784"
   d="m 393.37,66 h 11.07 c 2.82,0 3.72,0.73 3.72,3.54 v 7.92 c 0,2.82 -0.9,3.55 -3.72,3.55 h -11.07 c -2.82,0 -3.72,-0.74 -3.72,-3.55 v -7.91 c 0,-2.82 0.9,-3.55 3.72,-3.55 z m 11.29,12.19 v -9.51 h -11.53 v 9.51 z"
   class="st2" />
	<path
   id="path1786"
   d="m 415.29,66 h 2.39 l 10.56,8.8 c 0.62,0.48 1.2,1.03 1.72,1.63 -0.08,-1.25 -0.14,-2.12 -0.14,-2.6 V 66 h 3.15 v 15.01 h -2.35 l -11,-9.28 c -0.44,-0.38 -0.85,-0.79 -1.24,-1.22 0.11,1.15 0.14,1.95 0.14,2.39 v 8.12 h -3.15 z"
   class="st2" />
	<path
   id="path1788"
   d="m 455.04,68.62 v 3.22 h 9.37 c 2.82,0 3.75,0.73 3.75,3.55 v 2.07 c 0,2.82 -0.93,3.55 -3.75,3.55 h -9.28 c -2.83,0 -3.75,-0.74 -3.75,-3.55 v -0.41 l 3.08,-0.64 v 1.77 h 10.61 v -3.43 h -9.36 c -2.83,0 -3.73,-0.73 -3.73,-3.55 v -1.65 c 0,-2.82 0.9,-3.54 3.73,-3.54 h 8.53 c 2.67,0 3.72,0.69 3.72,3.3 v 0.33 l -3.08,0.73 v -1.75 h -9.84 z"
   class="st2" />
	<path
   id="path1790"
   d="m 475.22,66 h 15.4 v 2.55 h -11.88 v 3.3 h 6.86 v 2.55 h -6.93 v 3.73 h 12.02 v 2.83 h -15.51 z"
   class="st2" />
	<path
   id="path1792"
   d="m 497.39,66 h 12.86 c 2.3,0 3.38,0.81 3.38,2.9 v 3.52 c 0,2.1 -1.1,2.92 -3.38,2.92 h -1.98 l 6.93,5.68 h -5 l -6.05,-5.68 h -3.3 v 5.68 h -3.43 z m 3.43,2.58 v 4.19 h 7.88 c 1.1,0 1.57,-0.21 1.57,-1.2 v -1.8 c 0,-0.99 -0.5,-1.19 -1.57,-1.19 z"
   class="st2" />
	<path
   id="path1794"
   d="m 518.45,66 h 3.99 L 528.5,76.85 534.29,66 h 3.5 l -8.27,15.01 h -2.41 z"
   class="st2" />
	<path
   id="path1796"
   d="m 543.28,66 h 3.49 v 15.01 h -3.49 z"
   class="st2" />
	<path
   id="path1798"
   d="m 557.36,68.67 v 9.51 h 9.43 v -3.23 l 3.49,0.73 v 1.78 c 0,2.82 -0.9,3.55 -3.72,3.55 h -8.97 c -2.82,0 -3.72,-0.74 -3.72,-3.55 v -7.91 c 0,-2.82 0.9,-3.54 3.72,-3.54 h 8.97 c 2.82,0 3.72,0.73 3.72,3.54 v 1.43 l -3.49,0.55 v -2.86 c 0,0 -9.43,0 -9.43,0 z"
   class="st2" />
	<path
   id="path1800"
   d="m 577.32,66 h 15.4 v 2.55 h -11.9 v 3.3 h 6.92 v 2.55 h -6.92 v 3.73 h 12.01 v 2.83 h -15.51 z"
   class="st2" />
	<rect
   y="0"
   x="0"
   id="rect1802"
   width="650"
   height="8.7299995"
   class="st3" />
</g>
</svg>
