<?xml version="1.0" encoding="UTF-8" standalone="no"?>
<svg
   xmlns:dc="http://purl.org/dc/elements/1.1/"
   xmlns:cc="http://creativecommons.org/ns#"
   xmlns:rdf="http://www.w3.org/1999/02/22-rdf-syntax-ns#"
   xmlns:svg="http://www.w3.org/2000/svg"
   xmlns="http://www.w3.org/2000/svg"
   xmlns:sodipodi="http://sodipodi.sourceforge.net/DTD/sodipodi-0.dtd"
   xmlns:inkscape="http://www.inkscape.org/namespaces/inkscape"
   id="Laag_1"
   data-name="Laag 1"
   viewBox="0 0 200 200"
   version="1.1"
   sodipodi:docname="pmp.svg"
   width="200"
   height="200"
   inkscape:version="1.0.1 (3bc2e813f5, 2020-09-07)">
  <metadata
     id="metadata86">
    <rdf:RDF>
      <cc:Work
         rdf:about="">
        <dc:format>image/svg+xml</dc:format>
        <dc:type
           rdf:resource="http://purl.org/dc/dcmitype/StillImage" />
        <dc:title>pmp-logo-cmyk</dc:title>
      </cc:Work>
    </rdf:RDF>
  </metadata>
  <sodipodi:namedview
     pagecolor="#ffffff"
     bordercolor="#666666"
     borderopacity="1"
     objecttolerance="10"
     gridtolerance="10"
     guidetolerance="10"
     inkscape:pageopacity="0"
     inkscape:pageshadow="2"
     inkscape:window-width="2560"
     inkscape:window-height="1377"
     id="namedview84"
     showgrid="false"
     inkscape:zoom="2.3446172"
     inkscape:cx="70.704017"
     inkscape:cy="218.45826"
     inkscape:window-x="-8"
     inkscape:window-y="-8"
     inkscape:window-maximized="1"
     inkscape:current-layer="g118" />
  <defs
     id="defs19">
    <style
       id="style2">.cls-1{fill:url(#PMP-verloop);}.cls-2{fill:#95c11f;}.cls-3{fill:#fff;}</style>
    <linearGradient
       id="PMP-verloop"
       x1="57.41"
       y1="-3.9100001"
       x2="19.41"
       y2="137.91"
       gradientUnits="userSpaceOnUse">
      <stop
         offset="0"
         stop-color="#312783"
         id="stop4" />
      <stop
         offset="0.14"
         stop-color="#2f2d87"
         id="stop6" />
      <stop
         offset="0.31"
         stop-color="#293d93"
         id="stop8" />
      <stop
         offset="0.52"
         stop-color="#2058a8"
         id="stop10" />
      <stop
         offset="0.73"
         stop-color="#137ec4"
         id="stop12" />
      <stop
         offset="0.96"
         stop-color="#03aee7"
         id="stop14" />
      <stop
         offset="1"
         stop-color="#00b6ed"
         id="stop16" />
    </linearGradient>
  </defs>
  <title
     id="title21">pmp-logo-cmyk</title>
  <g
     id="g118">
    <g
       id="g150"
       transform="matrix(1.3194444,0,0,1.3157895,5.5445353,-2e-6)">
      <polygon
         class="cls-1"
         points="0,132 72,152 72,0 0,0 "
         id="polygon23"
         style="fill:url(#PMP-verloop)"
         transform="translate(35.587302)" />
      <polygon
         class="cls-2"
         points="36,142 0,132 0,152 "
         id="polygon25"
         transform="translate(35.587302)" />
      <polygon
         class="cls-3"
         points="35.22,57.52 35.22,81.35 25.74,81.35 25.74,67.81 24.11,67.81 24.11,81.35 15.83,81.35 15.83,67.81 14.19,67.81 14.19,81.35 4.71,81.35 4.71,57.52 "
         id="polygon27"
         transform="translate(35.587302)" />
      <path
         class="cls-3"
         d="m 65.367302,97.31 h 1.81 a 2.37,2.37 0 0 1 2.6,2.56 v 0 a 2.45,2.45 0 0 1 -2.58,2.61 h -0.61 V 105 h -1.22 z m 1.77,4.11 a 1.35,1.35 0 0 0 1.45,-1.51 v 0 a 1.32,1.32 0 0 0 -1.43,-1.5 h -0.57 v 3 z"
         id="path29" />
      <path
         class="cls-3"
         d="m 71.237302,97.31 h 2.05 a 2.57,2.57 0 0 1 1.89,0.68 2.36,2.36 0 0 1 0.63,1.73 v 0.06 a 2.22,2.22 0 0 1 -1.32,2.22 l 1.49,3 h -1.33 l -1.33,-2.78 h -0.89 V 105 h -1.19 z m 1.88,3.88 a 1.31,1.31 0 0 0 1.5,-1.4 1.27,1.27 0 0 0 -1.44,-1.39 h -0.75 v 2.79 z"
         id="path31" />
      <path
         class="cls-3"
         d="m 77.487302,97.31 h 1.18 V 105 h -1.18 z"
         id="path33" />
      <path
         class="cls-3"
         d="m 80.107302,97.31 h 1.25 l 1.42,5.7 1.42,-5.7 h 1.21 l -2.08,7.75 h -1.14 z"
         id="path35" />
      <path
         class="cls-3"
         d="m 87.937302,97.28 h 1.2 l 2.21,7.72 h -1.22 l -0.48,-1.78 h -2.26 l -0.47,1.78 h -1.18 z m 1.42,4.91 -0.84,-3.09 -0.84,3.09 z"
         id="path37" />
      <path
         class="cls-3"
         d="m 92.227302,101.24 v -0.15 c 0,-2.5 1.23,-3.86 2.84,-3.86 a 2.42,2.42 0 0 1 1.75,0.7 l -0.67,0.95 a 1.57,1.57 0 0 0 -1.09,-0.52 c -0.9,0 -1.62,1 -1.62,2.77 v 0.06 c 0,1.87 0.75,2.78 1.6,2.78 a 1.6,1.6 0 0 0 1.16,-0.57 l 0.64,0.91 a 2.58,2.58 0 0 1 -1.85,0.79 c -1.65,0 -2.76,-1.35 -2.76,-3.86 z"
         id="path39" />
      <path
         class="cls-3"
         d="m 99.727302,101.92 -2.06,-4.61 h 1.29 l 1.379998,3.25 1.37,-3.25 h 1.27 l -2.06,4.6 V 105 h -1.189998 z"
         id="path41" />
      <path
         class="cls-3"
         d="m 40.247302,108.31 h 1.22 l 1.55,3.43 1.57,-3.43 h 1.2 V 116 h -1.2 v -5.36 l -1.6,3.49 v 0 l -1.6,-3.46 V 116 h -1.14 z"
         id="path43" />
      <path
         class="cls-3"
         d="m 49.427302,108.28 h 1.16 l 2.25,7.72 h -1.25 l -0.48,-1.78 h -2.23 l -0.47,1.78 h -1.18 z m 1.42,4.91 -0.84,-3.09 -0.84,3.09 z"
         id="path45" />
      <path
         class="cls-3"
         d="m 54.277302,108.31 h 1.11 l 2.57,4.91 v -4.91 h 1.15 V 116 h -1 l -2.64,-5.09 V 116 h -1.19 z"
         id="path47" />
      <path
         class="cls-3"
         d="m 62.747302,108.28 h 1.2 l 2.21,7.72 h -1.22 l -0.48,-1.78 h -2.26 l -0.47,1.78 h -1.14 z m 1.42,4.91 -0.84,-3.09 -0.84,3.09 z"
         id="path49" />
      <path
         class="cls-3"
         d="m 67.037302,112.24 v -0.15 c 0,-2.38 1.26,-3.86 3,-3.86 a 2.79,2.79 0 0 1 1.87,0.68 l -0.66,1 a 1.58,1.58 0 0 0 -1.2,-0.54 c -1.05,0 -1.83,1 -1.83,2.74 v 0.13 c 0,1.89 0.81,2.79 1.85,2.79 a 1.34,1.34 0 0 0 0.79,-0.22 v -2 h -1.19 v -1 h 2.33 v 3.7 a 3.51,3.51 0 0 1 -2,0.64 c -1.7,-0.05 -2.96,-1.39 -2.96,-3.91 z"
         id="path51" />
      <path
         class="cls-3"
         d="m 73.757302,108.31 h 3.88 v 1.1 h -2.7 v 2.18 h 2.41 v 1.09 h -2.41 v 2.24 h 2.75 V 116 h -3.93 z"
         id="path53" />
      <path
         class="cls-3"
         d="m 79.287302,108.31 h 1.22 l 1.56,3.43 1.52,-3.43 h 1.22 V 116 h -1.13 v -5.36 l -1.6,3.49 v 0 l -1.6,-3.48 V 116 h -1.19 z"
         id="path55" />
      <path
         class="cls-3"
         d="m 86.697302,108.31 h 3.89 v 1.1 h -2.72 v 2.18 h 2.41 v 1.09 h -2.41 v 2.24 h 2.72 V 116 h -3.89 z"
         id="path57" />
      <path
         class="cls-3"
         d="m 92.227302,108.31 h 1.11 l 2.56,4.91 v -4.91 h 1.16 V 116 h -1 l -2.64,-5.09 V 116 h -1.19 z"
         id="path59" />
      <path
         class="cls-3"
         d="m 100.0573,109.43 h -1.539998 v -1.12 h 4.279998 v 1.12 h -1.55 V 116 h -1.19 z"
         id="path61" />
      <path
         class="cls-3"
         d="m 57.107302,119.31 h 1.81 a 2.37,2.37 0 0 1 2.6,2.56 v 0 a 2.45,2.45 0 0 1 -2.59,2.61 h -0.63 V 127 h -1.19 z m 1.77,4.11 a 1.36,1.36 0 0 0 1.44,-1.51 v 0 a 1.32,1.32 0 0 0 -1.43,-1.5 h -0.59 v 3 z"
         id="path63" />
      <path
         class="cls-3"
         d="m 64.137302,119.28 h 1.2 l 2.25,7.72 h -1.26 l -0.49,-1.78 h -2.25 l -0.48,1.78 h -1.17 z m 1.45,4.91 -0.84,-3.09 -0.85,3.09 z"
         id="path65" />
      <path
         class="cls-3"
         d="m 68.927302,119.31 h 2 a 2.57,2.57 0 0 1 1.89,0.68 2.36,2.36 0 0 1 0.63,1.73 v 0.06 a 2.22,2.22 0 0 1 -1.27,2.22 l 1.49,3 h -1.33 l -1.33,-2.78 h -0.89 V 127 h -1.19 z m 1.88,3.88 a 1.31,1.31 0 0 0 1.5,-1.4 1.27,1.27 0 0 0 -1.44,-1.39 h -0.75 v 2.79 z"
         id="path67" />
      <path
         class="cls-3"
         d="m 76.187302,120.43 h -1.54 v -1.12 h 4.28 v 1.12 h -1.55 V 127 h -1.19 z"
         id="path69" />
      <path
         class="cls-3"
         d="m 80.407302,119.31 h 1.11 l 2.56,4.91 v -4.91 h 1.16 V 127 h -1 l -2.65,-5.07 V 127 h -1.18 z"
         id="path71" />
      <path
         class="cls-3"
         d="m 87.087302,119.31 h 3.89 v 1.1 h -2.71 v 2.18 h 2.41 v 1.09 h -2.41 v 2.24 h 2.75 V 127 h -3.93 z"
         id="path73" />
      <path
         class="cls-3"
         d="m 92.587302,119.31 h 2 a 2.57,2.57 0 0 1 2,0.69 2.36,2.36 0 0 1 0.63,1.73 v 0.06 a 2.22,2.22 0 0 1 -1.35,2.21 l 1.5,3.07 h -1.33 l -1.33,-2.78 h -0.9 V 127 h -1.22 z m 1.88,3.88 a 1.3,1.3 0 0 0 1.49,-1.4 1.27,1.27 0 0 0 -1.37,-1.39 h -0.75 v 2.79 z"
         id="path75" />
      <path
         class="cls-3"
         d="m 98.247302,126.11 0.71,-0.92 a 2.36,2.36 0 0 0 1.549998,0.81 1,1 0 0 0 1,-1 v 0 c 0,-0.42 -0.2,-0.75 -1.18,-1.33 -1.259998,-0.74 -1.829998,-1.34 -1.829998,-2.34 v 0 a 2.07,2.07 0 0 1 2.229998,-2.08 2.81,2.81 0 0 1 2,0.84 l -0.73,0.92 a 1.94,1.94 0 0 0 -1.32,-0.66 0.89,0.89 0 0 0 -0.999998,0.87 v 0 c 0,0.46 0.21,0.77 1.339998,1.45 1.13,0.68 1.74,1.33 1.74,2.33 v 0 a 2.13,2.13 0 0 1 -2.24,2.13 3.1,3.1 0 0 1 -2.269998,-1.02 z"
         id="path77" />
      <path
         class="cls-3"
         d="M 72.307302,44.85 H 102.8173 V 64.47 H 83.127302 v 4.21 h -10.82 z m 19.68,9.54 h -8.86 v 1.73 h 8.86 z"
         id="path79" />
      <path
         class="cls-3"
         d="M 72.307302,70.18 H 102.8173 V 89.8 H 83.127302 V 94 h -10.82 z m 19.68,9.54 h -8.86 v 1.73 h 8.86 z"
         id="path81" />
    </g>
  </g>
</svg>
