<?xml version="1.0" encoding="UTF-8" standalone="no"?>
<svg
   xmlns:dc="http://purl.org/dc/elements/1.1/"
   xmlns:cc="http://creativecommons.org/ns#"
   xmlns:rdf="http://www.w3.org/1999/02/22-rdf-syntax-ns#"
   xmlns:svg="http://www.w3.org/2000/svg"
   xmlns="http://www.w3.org/2000/svg"
   xmlns:sodipodi="http://sodipodi.sourceforge.net/DTD/sodipodi-0.dtd"
   xmlns:inkscape="http://www.inkscape.org/namespaces/inkscape"
   width="698"
   height="698"
   viewBox="0 0 698 698"
   version="1.1"
   id="svg128"
   sodipodi:docname="secura.svg"
   inkscape:version="0.92.4 (5da689c313, 2019-01-14)">
  <metadata
     id="metadata134">
    <rdf:RDF>
      <cc:Work
         rdf:about="">
        <dc:format>image/svg+xml</dc:format>
        <dc:type
           rdf:resource="http://purl.org/dc/dcmitype/StillImage" />
        <dc:title>logo-secura</dc:title>
      </cc:Work>
    </rdf:RDF>
  </metadata>
  <defs
     id="defs132" />
  <sodipodi:namedview
     pagecolor="#ffffff"
     bordercolor="#666666"
     borderopacity="1"
     objecttolerance="10"
     gridtolerance="10"
     guidetolerance="10"
     inkscape:pageopacity="0"
     inkscape:pageshadow="2"
     inkscape:window-width="1920"
     inkscape:window-height="1017"
     id="namedview130"
     showgrid="false"
     inkscape:zoom="0.63216332"
     inkscape:cx="670.44259"
     inkscape:cy="207.38053"
     inkscape:window-x="-8"
     inkscape:window-y="-8"
     inkscape:window-maximized="1"
     inkscape:current-layer="svg128" />
  <title
     id="title73">logo-secura</title>
  <g
     id="Page-1"
     style="fill:none;fill-rule:evenodd;stroke:none;stroke-width:1"
     transform="translate(-1.5818697,252.40963)">
    <g
       id="logo-secura"
       style="fill-rule:nonzero">
      <g
         id="Group">
        <path
           d="m 237.2,6.6 c -10.5,-4.2 -22,-5.7 -33.1,-5.7 -24.5,0 -47.6,11.7 -47.6,38.6 0,34 43.6,30.4 43.6,53.4 0,13.7 -12,19.9 -24.4,19.9 -10.9,0 -21.4,-4.2 -31.3,-8.8 l -6.6,21.8 c 11.5,4.2 24.2,7.2 36.4,7.2 28,0 52.5,-11.3 52.5,-42.7 0,-35.5 -43.6,-34.2 -43.6,-54.7 0,-10.9 12.2,-14.6 21.4,-14.6 9.4,0 19,2.8 26.6,6.6 z m 96.2,84.7 c 1.5,-7 2.4,-13.9 2.4,-21.1 0,-24 -15.4,-35.9 -38.6,-35.9 -31,0 -53.6,28.2 -53.6,57.5 0,28 18.3,41.2 45.4,41.2 10.1,0 20.5,-2.4 30.1,-5.3 l 3.1,-19.4 c -9.2,4.2 -18.8,6.8 -29,6.8 -16.8,0 -26.2,-6.4 -26.2,-23.8 z M 270.3,74.4 c 4.8,-13 11.3,-22.2 26.6,-22.2 10.3,0 15.5,5.7 15.5,15.7 0,2.2 -0.2,4.2 -0.6,6.4 H 270.3 Z M 427.1,38 c -6.6,-2 -15.4,-3.7 -24.5,-3.7 -33.8,0 -55.6,25.1 -55.6,58 0,24.4 15.7,40.6 40.1,40.6 8.1,0 16.1,-0.7 23.6,-4.4 l 2.8,-19.4 c -6.4,3.1 -13.9,4.8 -19.9,4.8 -16.8,0 -20.9,-12.2 -20.9,-24.5 0,-17.7 10.9,-36 30.6,-36 6.8,0 13.1,1.7 17.9,4.8 z M 530.6,36.5 H 506.1 L 495.9,84 c -3.1,14.1 -9.4,30.1 -26.4,30.1 -7.9,0 -13.3,-5.3 -13.3,-13.1 0,-7 1.5,-13.3 2.8,-19.8 l 9.2,-44.5 h -24.5 l -9.9,45.8 c -1.3,5.9 -3.1,13.3 -3.1,20.5 0,18.7 12.2,30.2 30.8,30.2 10.6,0 19.9,-5.1 26.8,-11.3 h 0.4 l -1.7,9.2 h 24 c 0.4,-2.9 1.3,-7.9 2.4,-13.5 z m 5.8,94.3 h 24.5 l 8.8,-42.3 c 3.1,-15.2 11.5,-30.8 29,-30.8 3.1,0 6.6,0.6 9.4,1.5 l 5.1,-24 c -2.9,-0.7 -6.3,-0.9 -9.4,-0.9 -11.3,0 -23.4,9.7 -27.9,19.9 h -0.4 l 3.3,-17.7 h -23.4 c -0.7,4.4 -1.5,8.6 -2.2,12.6 z m 128.5,0 h 20.7 c 2.2,-17.7 11.5,-54.7 11.5,-67.4 0,-22.2 -17.7,-29.1 -36.6,-29.1 -10.9,0 -21.6,2 -32,5.7 L 625,59.6 c 9.7,-4.6 20.1,-7.4 31,-7.4 8.6,0 18.8,2.8 18.8,12.2 0,2.8 0,5.5 -0.7,8.1 h -8.6 c -23.1,0 -57.8,2.4 -57.8,33.5 0,17.4 12,26.9 29.1,26.9 13.5,0 22,-6.1 30.4,-16.6 h 0.4 z m -33.8,-25.6 c 0,-15.9 19.8,-17.9 31.6,-17.9 h 8.6 c -3.9,15.2 -9.6,27.9 -27.9,27.9 -6.2,-0.1 -12.3,-3.4 -12.3,-10 z"
           id="Shape"
           inkscape:connector-curvature="0"
           style="fill:#5a6c83" />
        <path
           d="m 62,128.2 c 0,0 -54.9,-16.2 -61.1,-99.1 0,0 45.1,-21.5 90.6,6.1 0,0 -34.6,-11.4 -70.3,8.1 C 21.1,43.2 8.9,81.6 62,128.2"
           id="Path"
           inkscape:connector-curvature="0"
           style="fill:#5a6c83" />
        <path
           d="m 130.9,30.1 c 0,0 13.4,55.6 -55.2,102.5 0,0 -41.3,-28.3 -40,-81.5 0,0 7.4,35.6 42.2,56.9 0,0 39.3,-8.6 53,-77.9"
           id="path77"
           inkscape:connector-curvature="0"
           style="fill:#1c1c34" />
        <path
           d="m 11.8,19.5 c 0,0 41.5,-39.4 116.4,-3.4 0,0 -4,49.9 -50.6,75.4 0,0 27.1,-24.2 28.2,-65 -0.1,0 -27.1,-29.8 -94,-7"
           id="path79"
           inkscape:connector-curvature="0"
           style="fill:#ee0939" />
      </g>
      <g
         id="g124"
         transform="translate(138,161)"
         style="fill:#1d1d35">
        <path
           d="M 14.5,15.9 H 5 L 2.9,21.2 H 0.1 L 8.3,1 h 2.9 l 8.2,20.2 H 16.6 Z M 13.6,13.6 9.8,4 6,13.6 Z"
           id="path82"
           inkscape:connector-curvature="0" />
        <path
           d="m 56.6,15.4 c 0,3.5 -2.6,5.9 -7.3,5.9 H 40.8 V 1.1 h 8 c 3.8,0 6.3,2 6.3,5.2 0,1.9 -0.8,3.2 -2.4,4 2.6,0.9 3.9,2.6 3.9,5.1 z M 43.5,3.5 v 5.9 h 5.4 c 2.3,0 3.6,-1.2 3.6,-3 0,-1.8 -1.2,-2.9 -3.6,-2.9 z m 10.4,11.8 c 0,-2.1 -1.6,-3.6 -4.6,-3.6 h -5.8 v 7.2 h 5.8 c 3,0 4.6,-1.5 4.6,-3.6 z"
           id="path84"
           inkscape:connector-curvature="0" />
        <path
           d="M 66.1,13.4 V 1.1 h 2.7 v 12 c 0,4.1 2.1,6.1 5.6,6.1 3.5,0 5.6,-2 5.6,-6.1 v -12 h 2.7 v 12.3 c 0,5.3 -3.2,8.2 -8.3,8.2 -5.1,0 -8.3,-3 -8.3,-8.2 z"
           id="path86"
           inkscape:connector-curvature="0" />
        <path
           d="M 99.8,13.2 H 96 v 8.1 H 93.3 V 1.1 h 8 c 4.3,0 7,2.2 7,6 0,3.3 -2,5.4 -5.3,5.9 l 6.2,8.2 h -3.3 z M 96,10.8 h 5 c 3.1,0 4.6,-1.2 4.6,-3.6 0,-2.4 -1.4,-3.6 -4.6,-3.6 h -5 z"
           id="path88"
           inkscape:connector-curvature="0" />
        <polygon
           id="polygon90"
           points="121.4,11.9 121.4,18.8 132.6,18.8 132.6,21.2 118.8,21.2 118.8,1 132.6,1 132.6,3.4 121.4,3.4 121.4,3.5 121.4,9.5 131.3,9.5 131.3,11.9 " />
        <path
           d="m 155,15.9 h -9.5 l -2.1,5.3 h -2.8 L 148.8,1 h 2.9 l 8.2,20.2 h -2.8 z m -0.9,-2.3 -3.8,-9.6 -3.8,9.6 z"
           id="path92"
           inkscape:connector-curvature="0" />
        <path
           d="M 167.9,13.4 V 1.1 h 2.7 v 12 c 0,4.1 2.1,6.1 5.6,6.1 3.5,0 5.6,-2 5.6,-6.1 v -12 h 2.7 v 12.3 c 0,5.3 -3.2,8.2 -8.3,8.2 -5.1,0 -8.3,-3 -8.3,-8.2 z"
           id="path94"
           inkscape:connector-curvature="0" />
        <polygon
           id="polygon96"
           points="208,1.1 214.6,18.2 221.2,1.1 224.1,1.1 216.1,21.3 213.2,21.3 205.2,1.1 " />
        <polygon
           id="polygon98"
           points="235.4,11.9 235.4,18.8 246.6,18.8 246.6,21.2 232.8,21.2 232.8,1 246.6,1 246.6,3.4 235.4,3.4 235.4,3.5 235.4,9.5 245.3,9.5 245.3,11.9 " />
        <path
           d="m 263.1,13.2 h -3.8 v 8.1 h -2.7 V 1.1 h 8 c 4.3,0 7,2.2 7,6 0,3.3 -2,5.4 -5.3,5.9 l 6.2,8.2 h -3.3 z m -3.8,-2.4 h 5 c 3.1,0 4.6,-1.2 4.6,-3.6 0,-2.4 -1.4,-3.6 -4.6,-3.6 h -5 z"
           id="path100"
           inkscape:connector-curvature="0" />
        <polygon
           id="polygon102"
           points="282.1,1.1 284.8,1.1 284.8,21.3 282.1,21.3 " />
        <polygon
           id="polygon104"
           points="300.4,3.5 293.5,3.5 293.5,1.1 310,1.1 310,3.5 303.1,3.5 303.1,21.2 300.4,21.2 " />
        <path
           d="m 328.9,15.9 h -9.5 l -2.1,5.3 h -2.8 L 322.7,1 h 2.9 l 8.2,20.2 H 331 Z m -1,-2.3 -3.8,-9.6 -3.8,9.6 z"
           id="path106"
           inkscape:connector-curvature="0" />
        <path
           d="m 340.9,19 1.6,-2.1 c 1.9,1.6 4.1,2.3 6.2,2.3 2.9,0 4.6,-1.4 4.6,-3.4 0,-1.5 -1,-2.6 -3.2,-3.1 l -4.2,-1 c -3,-0.7 -4.7,-2.6 -4.7,-5.1 0,-3.3 2.9,-5.8 7.1,-5.8 2.7,0 5.4,1 7.1,2.8 l -1.8,1.9 c -1.4,-1.5 -3.3,-2.2 -5.4,-2.2 -2.8,0 -4.4,1.4 -4.4,3.2 0,1.4 1,2.4 3.3,3 l 4.2,1 c 3,0.7 4.6,2.5 4.6,5.2 0,3.6 -2.9,6 -7.4,6 -2.7,-0.1 -5.5,-1 -7.6,-2.7 z"
           id="path108"
           inkscape:connector-curvature="0" />
        <path
           d="m 376.9,11.2 c 0,-6.2 4.7,-10.5 10.4,-10.5 3.6,0 6.9,1.7 8.8,4.8 l -2.2,1.4 c -1.4,-2.4 -3.8,-3.7 -6.6,-3.7 -4.3,0 -7.7,3.1 -7.7,8 0,4.9 3.3,8 7.7,8 2.9,0 5.4,-1.4 6.7,-3.7 l 2.2,1.4 c -1.8,2.9 -5.1,4.8 -8.9,4.8 -5.9,-0.1 -10.4,-4.4 -10.4,-10.5 z"
           id="path110"
           inkscape:connector-curvature="0" />
        <path
           d="m 404.4,11.2 c 0,-6.1 4.7,-10.4 10.4,-10.4 5.7,0 10.4,4.3 10.4,10.4 0,6.1 -4.7,10.4 -10.4,10.4 -5.7,0 -10.4,-4.3 -10.4,-10.4 z m 18,0 c 0,-4.9 -3.3,-8 -7.7,-8 -4.4,0 -7.7,3.1 -7.7,8 0,4.9 3.3,8 7.7,8 4.4,0 7.7,-3.1 7.7,-8 z"
           id="path112"
           inkscape:connector-curvature="0" />
        <polygon
           id="polygon114"
           points="446.9,20.7 444.9,20.7 437.4,5.7 437.4,21.3 434.7,21.3 434.7,1.1 437.8,1.1 445.9,17.3 453.9,1.1 457.1,1.1 457.1,21.3 454.4,21.3 454.4,5.7 " />
        <path
           d="m 482.8,7.2 c 0,3.9 -2.7,6.1 -7,6.1 h -5.1 v 8 H 468 V 1.1 h 7.8 c 4.4,0 7,2.2 7,6.1 z m -2.7,0 c 0,-2.4 -1.4,-3.7 -4.6,-3.7 h -4.8 v 7.4 h 4.8 c 3.2,0 4.6,-1.2 4.6,-3.7 z"
           id="path116"
           inkscape:connector-curvature="0" />
        <path
           d="m 502.6,15.9 h -9.5 l -2.1,5.3 h -2.8 L 496.4,1 h 2.9 l 8.2,20.2 h -2.8 z m -0.9,-2.3 -3.8,-9.6 -3.8,9.6 z"
           id="path118"
           inkscape:connector-curvature="0" />
        <polygon
           id="polygon120"
           points="518.8,21.3 516.1,21.3 516.1,1.1 518.9,1.1 530.3,17.2 530.3,1.1 533,1.1 533,21.3 530.2,21.3 518.8,5.2 " />
        <polygon
           id="polygon122"
           points="549.1,13.3 541.3,1.1 544.3,1.1 550.4,10.8 556.5,1.1 559.6,1.1 551.8,13.3 551.8,21.2 549.1,21.2 " />
      </g>
    </g>
  </g>
</svg>
