<?xml version="1.0" encoding="UTF-8" standalone="no"?>
<svg
   xmlns:dc="http://purl.org/dc/elements/1.1/"
   xmlns:cc="http://creativecommons.org/ns#"
   xmlns:rdf="http://www.w3.org/1999/02/22-rdf-syntax-ns#"
   xmlns:svg="http://www.w3.org/2000/svg"
   xmlns="http://www.w3.org/2000/svg"
   xmlns:sodipodi="http://sodipodi.sourceforge.net/DTD/sodipodi-0.dtd"
   xmlns:inkscape="http://www.inkscape.org/namespaces/inkscape"
   viewBox="0 0 330 330"
   width="300"
   height="300"
   version="1.1"
   id="svg3212"
   sodipodi:docname="sidn.svg"
   inkscape:version="1.0 (4035a4f, 2020-05-01)">
  <metadata
     id="metadata3218">
    <rdf:RDF>
      <cc:Work
         rdf:about="">
        <dc:format>image/svg+xml</dc:format>
        <dc:type
           rdf:resource="http://purl.org/dc/dcmitype/StillImage" />
        <dc:title></dc:title>
      </cc:Work>
    </rdf:RDF>
  </metadata>
  <defs
     id="defs3216" />
  <sodipodi:namedview
     scale-x="3"
     inkscape:document-rotation="0"
     pagecolor="#ffffff"
     bordercolor="#666666"
     borderopacity="1"
     objecttolerance="10"
     gridtolerance="10"
     guidetolerance="10"
     inkscape:pageopacity="0"
     inkscape:pageshadow="2"
     inkscape:window-width="1440"
     inkscape:window-height="810"
     id="namedview3214"
     showgrid="false"
     inkscape:zoom="1"
     inkscape:cx="48.5"
     inkscape:cy="37.5"
     inkscape:window-x="0"
     inkscape:window-y="23"
     inkscape:window-maximized="0"
     inkscape:current-layer="svg3212" />
  <path
     style="stroke-width:3"
     fill="#02bbb9"
     d="m 262.82982,179.58879 c -13.302,-43.179 -39.933,-95.516999 -55.287,-125.111999 14.307,1.008 25.608,2.601 37.857,5.886 0.135,29.259 15.192,79.385999 17.43,119.225999 z"
     id="path3154" />
  <path
     style="stroke-width:3"
     fill="#1268b3"
     d="m 13.055816,203.42979 v -17.73 c 6.042,2.895 13.53,5.778 21.672,5.778 8.664,0 12.474,-2.883 12.474,-7.62 0,-6.303 -5.646,-6.432 -18.258,-11.937 -8.268,-3.555 -16.02,-9.849 -16.02,-23.511 0,-16.551 12.477,-24.174 29.553,-24.174 9.063,0 16.419,1.974 21.012,3.684 v 17.331 c -4.2,-1.971 -11.817,-4.461 -19.437,-4.461 -7.488,0 -10.905,2.49 -10.905,6.828 0,4.731 4.467,6.432 12.084,9.192 12.477,4.47 23.379,9.33 23.379,26.13 0,16.683 -13.134,25.221 -30.204,25.221 -10.641,-0.003 -18.789,-1.839 -25.35,-4.731 z"
     id="path3156" />
  <g
     fill="#1268b3"
     id="g3160"
     transform="matrix(3,0,0,3,12.875816,53.711791)">
    <path
       d="m 71.234,41.936 c 1.744,0 3.43,0.004 5.043,0.006 l -2.766,-4.445 c -0.738,-1.164 -1.599,-2.591 -2.184,-3.758 a 11.156,11.156 0 0 1 -0.213,-0.141 c 0.045,1.167 0.117,2.51 0.117,3.68 v 4.659 h 0.003 z M 65.193,41.93 V 29.708 C 53.529,22.104 40.972,14.162 31.145,7.087 c -3.956,3.597 -6.228,9.716 -7.504,16.77 h 6.219 v 18.092 l 6.699,-0.008 V 23.903 h 9.938 c 10.026,0 13.704,6.564 13.704,13.615 0,1.479 -0.188,2.976 -0.58,4.412 z"
       id="path3158" />
  </g>
  <path
     style="stroke-width:3"
     fill="#f15d2c"
     d="m 241.70682,179.53479 c -4.839,-0.006 -9.897,-0.018 -15.129,-0.018 v 27.657 h -18.123 v -27.672 h -16.719 c -4.062,14.937 -15.807,27.606 -39.762,27.606 h -29.424 v -27.57 l -20.097,0.024 v 27.552 H 81.437816 c 4.659,30.921 17.394,51.945 46.536004,61.593 37.938,-27.048 85.248,-47.661 121.263,-77.046 z"
     id="path3162" />
  <path
     style="stroke-width:3"
     fill="#e78040"
     d="m 249.23682,191.65779 c -36.015,29.385 -83.325,49.998 -121.263,77.046 10.143,3.696 21.126,6.018 33.582,7.593 27.99,-25.194 63.336,-49.05 89.778,-81.27 z"
     id="path3164" />
  <path
     style="stroke-width:3"
     fill="#682c91"
     d="m 260.60982,207.17379 h -1.719 l -7.557,-12.147 c -26.436,32.22 -61.788,56.07 -89.778,81.27 33.363,3.939 65.463,3.561 91.83,-5.574 -2.49,-20.907 3.711,-40.404 7.224,-63.549 z"
     id="path3166" />
  <path
     style="stroke-width:3"
     fill="#26abce"
     d="m 271.73382,207.17379 h -11.124 c -3.513,23.145 -9.714,42.642 -7.218,63.549 14.28,-5.094 23.28,-11.436 31.395,-22.818 -7.899,-15.543 -10.014,-27.714 -13.053,-40.731 z"
     id="path3168" />
  <path
     style="stroke-width:3"
     fill="#ffffff"
     d="m 280.82382,203.91579 v 3.258 h -9.09 c 3.039,13.017 5.154,25.188 13.053,40.728 4.335,-6.105 8.028,-13.941 10.653,-22.074 -6.801,-8.997 -10.749,-15.615 -14.616,-21.912 z"
     id="path3170" />
  <path
     style="stroke-width:3"
     fill="#18984a"
     d="m 303.59382,148.70379 c -9.774,4.641 -15.207,12.945 -22.77,20.091 v 35.121 c 3.867,6.297 7.812,12.915 14.613,21.912 7.446,-23.316 9.288,-48.768 8.157,-77.124 z"
     id="path3172" />
  <path
     style="stroke-width:3"
     fill="#ffffff"
     d="m 302.81982,137.17779 c -9.621,6.969 -14.943,17.322 -21.996,26.637 v 4.98 c 7.563,-7.146 12.996,-15.45 22.77,-20.091 a 206.754,206.754 0 0 0 -0.774,-11.526 z"
     id="path3174" />
  <path
     style="stroke-width:3"
     fill="#f15d2c"
     d="m 299.95482,117.71979 -0.447,-2.034 c -8.61,9.99 -13.368,22.719 -18.684,35.004 v 13.125 c 7.053,-9.312 12.375,-19.668 21.996,-26.637 -0.63,-6.807 -1.557,-13.305 -2.865,-19.458 z"
     id="path3176" />
  <path
     style="stroke-width:3"
     fill="#002d6a"
     d="m 280.82382,125.34579 v 25.344 c 5.313,-12.285 10.068,-25.017 18.684,-35.004 -3.369,-14.598 -8.328,-25.574999 -16.884,-34.850999 -5.964,12.708 -8.433,28.376999 -10.377,44.510999 z"
     id="path3178" />
  <path
     style="stroke-width:3"
     fill="#48ba7f"
     d="m 272.24682,125.34579 c 1.944,-16.134 4.413,-31.802999 10.377,-44.510999 a 59.367,59.367 0 0 0 -12.198,-10.071 c -4.74,14.985 -5.016,34.475999 -5.01,54.584999 z"
     id="path3180" />
  <path
     style="stroke-width:3"
     fill="#002d6a"
     d="m 263.93382,125.34579 c -0.561,-20.874 -0.915,-41.099999 3.351,-56.438999 -0.966,-0.534 -0.639,-0.363 -1.632,-0.879 -3.987,15.513 -3.312,36.071999 -2.457,57.317999 z"
     id="path3182" />
  <path
     style="stroke-width:3"
     fill="#48ba7f"
     d="m 262.69482,125.34579 h 0.498 c -0.855,-21.246 -1.536,-41.807999 2.454,-57.317999 a 84.162,84.162 0 0 0 -6.87,-3.198 c -4.005,23.457 2.31,59.123999 3.927,91.673999 v -31.158 z"
     id="path3184" />
  <path
     style="stroke-width:3"
     fill="#1268b3"
     d="m 262.69482,166.85079 v -10.35 c -1.617,-32.55 -7.929,-68.216999 -3.924,-91.673999 a 106.734,106.734 0 0 0 -13.377,-4.464 c 0.132,29.259 15.195,79.382999 17.436,119.225999 -0.264,-3.681 -0.135,-9.315 -0.135,-12.738 z"
     id="path3186" />
  <path
     style="stroke-width:3"
     fill="#e78040"
     d="m 262.82982,179.58879 c -13.302,-43.179 -39.933,-95.516999 -55.287,-125.111999 a 279.594,279.594 0 0 0 -28.617,-0.648 c 25.17,29.133 58.716,77.060999 80.4,118.871999 1.356,2.505 2.604,4.938 3.504,6.888 z"
     id="path3188" />
  <path
     style="stroke-width:3"
     fill="#682c91"
     d="m 230.12382,125.34579 5.466,8.757 a 626.892,626.892 0 0 1 17.784,28.503 l 2.232,3.588 c 1.23,2.037 2.52,4.293 3.72,6.504 -21.684,-41.808 -55.236,-89.735999 -80.4,-118.865999 -1.419,0.042 -3.297,0.102 -4.71,0.168 16.923,18.528 37.119,44.361 55.509,71.348999 z"
     id="path3190" />
  <path
     style="stroke-width:3"
     fill="#26abce"
     d="m 229.71882,125.34579 c -18.393,-26.987999 -38.586,-52.820999 -55.506,-71.348999 -2.811,0.123 -4.197,0.204 -6.96,0.408 18.327,18.69 39.873,44.274 59.556,70.940999 z"
     id="path3192" />
  <path
     style="stroke-width:3"
     fill="#18984a"
     d="m 226.80882,125.34579 c -19.683,-26.666999 -41.229,-52.250999 -59.556,-70.940999 -5.529,0.399 -10.44,0.924 -15.624,1.716 21.063,18.969 45.384,43.674 67.836,69.224999 z"
     id="path3194" />
  <path
     style="stroke-width:3"
     fill="#ffffff"
     d="m 208.45482,125.34579 h 11.01 c -22.452,-25.550999 -46.776,-50.255999 -67.836,-69.224999 -9.057,1.395 -16.233,3.111 -23.784,5.955 24.63,19.551 53.496,42.971999 80.613,66.623999 v -3.354 z"
     id="path3196" />
  <path
     style="stroke-width:3"
     fill="#f15d2c"
     d="m 208.45482,128.70279 c -27.117,-23.652 -55.98,-47.072999 -80.613,-66.623999 -5.385,2.034 -10.269,4.494 -14.673,7.47 28.173,21.006 62.928,45.110999 95.283,68.615999 v -9.462 z"
     id="path3198" />
  <path
     style="stroke-width:3"
     fill="#002d6a"
     d="m 208.45482,138.16179 c -32.355,-23.502 -67.11,-47.606999 -95.283,-68.615999 -0.879,0.597 -0.585,0.393 -1.449,1.008 28.47,21.09 63.831,45.167999 96.732,68.573999 z"
     id="path3200" />
  <path
     style="stroke-width:3"
     fill="#ffffff"
     d="m 265.41582,125.34579 c -0.006,-20.109 0.27,-39.599999 5.01,-54.584999 a 84.714,84.714 0 0 0 -3.141,-1.854 c -4.266,15.339 -3.912,35.564999 -3.351,56.438999 z"
     id="path3202" />
  <g
     fill="#48ba7f"
     id="g3206"
     transform="matrix(3,0,0,3,12.875816,53.711791)">
    <path
       d="m 71.104,33.292 0.013,0.304 c 0.071,0.049 0.142,0.095 0.213,0.141 -0.077,-0.146 -0.162,-0.306 -0.226,-0.445 z M 65.193,28.473 C 54.229,20.67 42.439,12.645 32.949,5.615 c -0.574,0.412 -1.293,1 -1.805,1.472 9.827,7.075 22.385,15.017 34.049,22.621 z"
       id="path3204" />
  </g>
  <path
     style="stroke-width:3"
     fill="#f15d2c"
     d="m 169.95882,179.50179 c -9.219,0 -18.288,0.012 -26.922,0.018 v 10.782 h 6.96 c 11.415,-0.003 17.229,-4.2 19.962,-10.8 z"
     id="path3208" />
  <path
     style="stroke-width:3"
     fill="#1268b3"
     d="m 150.78882,141.96279 h -7.749 v 37.557 c 8.634,-0.006 17.7,-0.018 26.919,-0.018 1.551,-3.738 2.109,-8.244 2.109,-13.236 0,-13.923 -4.071,-24.303 -21.279,-24.303 z"
     id="path3210" />
</svg>
