<?xml version="1.0" encoding="utf-8" standalone="no"?><!-- Generator: Adobe Illustrator 23.1.0, SVG Export Plug-In . SVG Version: 6.00 Build 0)  --><svg xmlns="http://www.w3.org/2000/svg" xmlns:xlink="http://www.w3.org/1999/xlink" height="125px" id="Laag_1" style="enable-background:new 0 0 650 125;" version="1.1" viewBox="0 0 650 125" width="650px" x="0px" xml:space="preserve" y="0px">
<style type="text/css">
	.st0{fill:#ED6A00;}
	.st1{display:none;}
	.st2{display:inline;}
	.st3{display:inline;fill:#ED6A00;}
</style>
<title>logo-openbaar-ministerie</title>
<g id="_843bdb02-be42-4d8a-9333-7c91504d04b6">
	<g id="_3eb42873-4996-4a47-8e8a-4d6329b4f791">
		<path d="M300.68,33.82c1.04,0,1.73,0.18,1.73,1.22v1.75c0,1-0.51,1.22-1.73,1.22h-8.25v-4.19    C292.42,33.82,300.68,33.82,300.68,33.82z M288.65,46.39h3.61v-5.76h3.49l6.37,5.76h5.33l-7.05-5.76h1.89c2.41,0,3.44-0.87,3.44-3    V34c0-2.1-1.04-3-3.44-3h-13.65L288.65,46.39L288.65,46.39z M263.51,46.39h3.64l1.89-3.32h9.94l1.89,3.32h4.13l-9.12-15.19h-3.44    L263.51,46.39z M270.57,40.28l3.48-6.28l3.44,6.28H270.57z M239.25,46.39h3.62l1.89-3.32h9.98l1.89,3.32h4.13l-9.12-15.19h-3.62    L239.25,46.39z M246.31,40.28l3.44-6.28l3.44,6.28H246.31z M218.77,46.39h12.56c3.11,0,4.65-1.05,4.65-3V41.5    c0.08-1.54-1.06-2.87-2.58-3c1.72-0.35,2.58-1.23,2.58-2.62V34c0-2.1-1.2-3-3.62-3h-13.42L218.77,46.39z M230.6,33.65    c1.2,0,1.72,0.17,1.72,1v1.39c0,0.87-0.51,1.05-1.72,1.05h-8.09v-3.44H230.6z M230.6,39.76c1.2,0,1.72,0.17,1.72,1.39v1.23    c0,1-0.51,1.39-1.72,1.39h-8.09v-3.83L230.6,39.76L230.6,39.76z M194.12,46.39h3.27v-10.3l12.74,10.3h2.57V31.2h-3.26v10.13    l-12.7-10.13h-2.55L194.12,46.39z M172.62,46.39h16.35V43.6h-12.52v-3.84h7.23v-2.62h-7.23v-3.32h12.38v-2.79h-16.17L172.62,46.39    z M150.24,46.39h3.62v-5.93h9.98c2.42,0,3.44-0.88,3.44-3v-3.29c0-2.09-0.99-3-3.44-3h-13.38L150.24,46.39z M162.28,33.82    c0.99,0,1.73,0.18,1.73,1.22v1.58c0,1-0.52,1.22-1.73,1.22h-8.22v-4L162.28,33.82z M128.21,34h12.05v9.42h-12.01L128.21,34z     M124.42,34.7v8c0,2.8,0.87,3.67,3.94,3.67h11.7c2.96,0,3.94-0.7,3.94-3.67v-8c0-3-0.86-3.67-3.94-3.67h-11.64    c-2.96,0.17-3.94,0.87-3.94,3.67"/>
		<path d="M414.06,33.82v1.57l3.1-0.69v-0.35c0-2.62-1.2-3.32-3.94-3.32h-8.95c-2.96,0-3.94,0.7-3.94,3.67v1.74    c0,2.79,1.04,3.67,3.94,3.67h9.63v3.49h-10.98v-1.75l-3.26,0.7v0.39c0,2.79,0.99,3.66,3.94,3.66h9.81c2.96,0,3.94-0.69,3.94-3.66    v-2.1c0-2.79-0.86-3.66-3.94-3.66h-9.47v-3.36L414.06,33.82L414.06,33.82z M389.84,46.39h3.61V31.2h-3.61V46.39z M364.54,46.39    h3.27v-10.3l12.73,10.3h2.42V31.2h-3.27v10.13L366.94,31.2h-2.57v15.19H364.54z M354.21,46.39h3.65V31.2h-3.65V46.39z     M354.21,46.39h3.65V31.2h-3.65V46.39z M327.02,46.39h2.96v-10.3l6.7,8.55h0.69l6.68-8.7v10.45h3.44V31.2h-2.96l-7.23,9.08    l-7.39-9.08h-2.96L327.02,46.39z"/>
		<path d="M499.97,46.39h16.36V43.6h-12.54v-3.84h7.24v-2.62h-7.24v-3.32h12.39v-2.79h-16.21L499.97,46.39L499.97,46.39z     M489.65,46.39h3.62V31.2h-3.62V46.39z M478.29,33.82c1.04,0,1.73,0.18,1.73,1.22v1.75c0,1-0.52,1.22-1.73,1.22h-8.43v-4.19    C469.86,33.82,478.29,33.82,478.29,33.82z M466.24,46.39h3.62v-5.76h3.44l6.19,5.76h5.34l-7.06-5.76h2.06c2.42,0,3.44-0.87,3.44-3    V34c0-2.1-0.99-3-3.44-3h-13.6V46.39z M444.9,46.39h16.35V43.6h-12.56v-3.84h7.23v-2.62h-7.23v-3.32h12.39v-2.79H444.9V46.39    L444.9,46.39z M432.85,33.82h7.23v-2.79h-18.06v2.79h7.23v12.57h3.61L432.85,33.82L432.85,33.82z"/>
	</g>
</g>
<rect class="st0" height="8.73" width="650" x="-0.06"/>
<g class="st1" id="engels">
	<path class="st2" d="M198.84,31.03h2.39l10.56,8.85c0.62,0.49,1.19,1.04,1.72,1.63c-0.09-1.25-0.14-2.12-0.14-2.6v-7.89h3.14V46   h-2.39l-11-9.28c-0.47-0.37-0.91-0.78-1.31-1.22c0.09,0.79,0.14,1.59,0.14,2.39v8.12h-3.14L198.84,31.03z"/>
	<path class="st2" d="M223.8,31.03h15.4v2.53h-11.88v3.3h6.93v2.56h-6.93v3.73h12.02v2.82H223.8V31.03z"/>
	<path class="st2" d="M254.6,46.01h-3.5V33.68h-6.9v-2.65h17.31v2.68h-6.92L254.6,46.01L254.6,46.01z"/>
	<path class="st2" d="M267.13,31.03h3.49v5.83h10.91v-5.83h3.52v14.98h-3.52v-6.46h-10.91v6.46h-3.49V31.03z"/>
	<path class="st2" d="M292.39,31.03h15.4v2.53h-11.9v3.3h6.92v2.56h-6.92v3.73h12.01v2.82h-15.51V31.03z"/>
	<path class="st2" d="M314.56,31.03h12.86c2.3,0,3.38,0.82,3.38,2.91v3.52c0,2.09-1.1,2.92-3.38,2.92h-1.98l6.93,5.67h-5l-6.05-5.67   h-3.3v5.67h-3.43L314.56,31.03z M317.99,33.63v4.19h7.85c1.1,0,1.57-0.21,1.57-1.2v-1.84c0-0.99-0.49-1.19-1.57-1.19L317.99,33.63z   "/>
	<path class="st2" d="M338.59,31.03h3.49V43.2h11.26v2.82h-14.75V31.03z"/>
	<path class="st2" d="M366.4,31.03h3.38l8.61,15.02h-3.89l-1.8-3.3h-9.51l-1.75,3.3h-3.49L366.4,31.03z M371.21,40.05l-3.23-6.1   l-3.3,6.1H371.21z"/>
	<path class="st2" d="M384.25,31.03h2.35l10.6,8.8c0.62,0.49,1.19,1.04,1.72,1.63c-0.09-1.25-0.15-2.12-0.15-2.6v-7.83h3.15v14.98   h-2.39l-11-9.28c-0.45-0.37-0.87-0.78-1.25-1.22c0.11,1.17,0.14,1.96,0.14,2.39v8.12h-3.15L384.25,31.03z"/>
	<path class="st2" d="M409.24,31.03h9.66c5.62,0,8.58,2.77,8.58,7.43c0.12,2.58-1.14,5.03-3.3,6.43c-1.46,0.9-3.5,1.1-6.17,1.1h-8.8   L409.24,31.03z M417.23,43.23c4.4,0,6.6-1.1,6.6-4.83c0-3.06-1.65-4.69-4.94-4.69h-6.2v9.51L417.23,43.23L417.23,43.23z"/>
	<path class="st2" d="M437.2,33.63v3.22h9.37c2.83,0,3.75,0.73,3.75,3.55v2.07c0,2.82-0.92,3.54-3.75,3.54h-9.26   c-2.82,0-3.75-0.73-3.75-3.54v-0.44l3.09-0.65v1.78h10.61v-3.4h-9.37c-2.82,0-3.72-0.73-3.72-3.55v-1.66c0-2.82,0.9-3.55,3.72-3.55   h8.53c2.68,0,3.73,0.7,3.73,3.3v0.33l-3.09,0.73v-1.73H437.2z"/>
	<path class="st2" d="M57.17,66h12.86c2.3,0,3.38,0.81,3.38,2.9v3.3c0,2.1-1.1,2.92-3.38,2.92H60.6v5.85h-3.43V66z M60.6,68.58v3.98   h7.85c1.1,0,1.57-0.2,1.57-1.19v-1.61c0-0.99-0.49-1.19-1.57-1.19H60.6V68.58z"/>
	<path class="st2" d="M83,78.19h9.9V66h3.5v11.46c0,2.82-0.9,3.55-3.73,3.55h-9.48c-2.83,0-3.73-0.74-3.73-3.55V66H83V78.19z"/>
	<path class="st2" d="M103.8,66h12.86c2.3,0,3.38,0.81,3.38,2.9v1.84c0,1.45-0.92,2.32-2.59,2.53c1.53,0.04,2.74,1.3,2.71,2.84   c0,0.02,0,0.03,0,0.05v1.91c0,2.01-1.49,2.95-4.4,2.95H103.8V66z M107.2,68.45v3.57h7.97c1.1,0,1.61-0.2,1.61-1.1v-1.38   c0-0.88-0.53-1.1-1.61-1.1L107.2,68.45L107.2,68.45z M107.2,74.5v3.85h7.97c1.2,0,1.69-0.23,1.69-1.33v-1.1   c0-1.1-0.49-1.34-1.69-1.34L107.2,74.5z"/>
	<path class="st2" d="M127,66h3.49v12.19h11.26v2.83H127V66z"/>
	<path class="st2" d="M147.71,66h3.49v15.01h-3.5L147.71,66z"/>
	<path class="st2" d="M161.79,68.67v9.51h9.43v-3.23l3.5,0.73v1.78c0,2.82-0.9,3.55-3.73,3.55h-8.96c-2.82,0-3.72-0.74-3.72-3.55   v-7.91c0-2.82,0.9-3.54,3.72-3.54H171c2.83,0,3.73,0.73,3.73,3.54v1.43l-3.5,0.55v-2.86C171.23,68.67,161.79,68.67,161.79,68.67z"/>
	<path class="st2" d="M193.2,66h12.86c2.3,0,3.38,0.81,3.38,2.9v3.3c0,2.1-1.1,2.92-3.38,2.92h-9.43v5.85h-3.43L193.2,66z    M196.63,68.58v3.98h7.85c1.1,0,1.57-0.2,1.57-1.19v-1.61c0-0.99-0.49-1.19-1.57-1.19h-7.85V68.58z"/>
	<path class="st2" d="M215.56,66h12.86c2.3,0,3.38,0.81,3.38,2.9v3.52c0,2.1-1.1,2.92-3.38,2.92h-1.98l6.93,5.68h-5.01l-6.05-5.68   h-3.3v5.68h-3.43L215.56,66z M218.99,68.58v4.19h7.85c1.1,0,1.57-0.21,1.57-1.2v-1.8c0-0.99-0.49-1.19-1.57-1.19H218.99z"/>
	<path class="st2" d="M242.68,66h11.07c2.82,0,3.72,0.73,3.72,3.54v7.92c0,2.82-0.9,3.55-3.72,3.55h-11.07   c-2.82,0-3.72-0.74-3.72-3.55v-7.91C238.96,66.73,239.86,66,242.68,66z M253.97,78.19v-9.51H242.5v9.51H253.97z"/>
	<path class="st2" d="M268.01,68.62v3.22h9.37c2.82,0,3.75,0.73,3.75,3.55v2.07c0,2.82-0.94,3.55-3.75,3.55h-9.28   c-2.83,0-3.75-0.74-3.75-3.55v-0.41l3.08-0.64v1.77h10.63v-3.43h-9.37c-2.83,0-3.73-0.73-3.73-3.55v-1.65   c0-2.82,0.9-3.54,3.73-3.54h8.52c2.67,0,3.72,0.69,3.72,3.3v0.33l-3.08,0.73v-1.75H268.01z"/>
	<path class="st2" d="M288.18,66h15.4v2.55h-11.9v3.3h6.92v2.55h-6.92v3.73h12.01v2.83h-15.51V66z"/>
	<path class="st2" d="M313.67,68.67v9.51h9.43v-3.23l3.5,0.73v1.78c0,2.82-0.9,3.55-3.73,3.55h-8.95c-2.83,0-3.73-0.74-3.73-3.55   v-7.91c0-2.82,0.9-3.54,3.73-3.54h8.95c2.83,0,3.73,0.73,3.73,3.54v1.43l-3.5,0.55v-2.86C323.1,68.67,313.67,68.67,313.67,68.67z"/>
	<path class="st2" d="M337.1,78.19h9.95V66h3.49v11.46c0,2.82-0.9,3.55-3.72,3.55h-9.49c-2.82,0-3.72-0.74-3.72-3.55V66h3.49V78.19z   "/>
	<path class="st2" d="M366.55,81.01h-3.49V68.67h-6.9V66h17.31v2.67h-6.93L366.55,81.01z"/>
	<path class="st2" d="M379.05,66h3.5v15.01h-3.5V66z"/>
	<path class="st2" d="M393.37,66h11.07c2.82,0,3.72,0.73,3.72,3.54v7.92c0,2.82-0.9,3.55-3.72,3.55h-11.07   c-2.82,0-3.72-0.74-3.72-3.55v-7.91C389.65,66.73,390.55,66,393.37,66z M404.66,78.19v-9.51h-11.53v9.51H404.66z"/>
	<path class="st2" d="M415.29,66h2.39l10.56,8.8c0.62,0.48,1.2,1.03,1.72,1.63c-0.08-1.25-0.14-2.12-0.14-2.6V66h3.15v15.01h-2.35   l-11-9.28c-0.44-0.38-0.85-0.79-1.24-1.22c0.11,1.15,0.14,1.95,0.14,2.39v8.12h-3.15L415.29,66z"/>
	<path class="st2" d="M455.04,68.62v3.22h9.37c2.82,0,3.75,0.73,3.75,3.55v2.07c0,2.82-0.93,3.55-3.75,3.55h-9.28   c-2.83,0-3.75-0.74-3.75-3.55v-0.41l3.08-0.64v1.77h10.61v-3.43h-9.36c-2.83,0-3.73-0.73-3.73-3.55v-1.65   c0-2.82,0.9-3.54,3.73-3.54h8.53c2.67,0,3.72,0.69,3.72,3.3v0.33l-3.08,0.73v-1.75H455.04z"/>
	<path class="st2" d="M475.22,66h15.4v2.55h-11.88v3.3h6.86v2.55h-6.93v3.73h12.02v2.83h-15.51L475.22,66z"/>
	<path class="st2" d="M497.39,66h12.86c2.3,0,3.38,0.81,3.38,2.9v3.52c0,2.1-1.1,2.92-3.38,2.92h-1.98l6.93,5.68h-5l-6.05-5.68h-3.3   v5.68h-3.43L497.39,66z M500.82,68.58v4.19h7.88c1.1,0,1.57-0.21,1.57-1.2v-1.8c0-0.99-0.5-1.19-1.57-1.19H500.82z"/>
	<path class="st2" d="M518.45,66h3.99l6.06,10.85L534.29,66h3.5l-8.27,15.01h-2.41L518.45,66z"/>
	<path class="st2" d="M543.28,66h3.49v15.01h-3.49V66z"/>
	<path class="st2" d="M557.36,68.67v9.51h9.43v-3.23l3.49,0.73v1.78c0,2.82-0.9,3.55-3.72,3.55h-8.97c-2.82,0-3.72-0.74-3.72-3.55   v-7.91c0-2.82,0.9-3.54,3.72-3.54h8.97c2.82,0,3.72,0.73,3.72,3.54v1.43l-3.49,0.55v-2.86C566.79,68.67,557.36,68.67,557.36,68.67z   "/>
	<path class="st2" d="M577.32,66h15.4v2.55h-11.9v3.3h6.92v2.55h-6.92v3.73h12.01v2.83h-15.51V66z"/>
	<rect class="st3" height="8.73" width="650"/>
</g>
</svg>