<svg id="Laag_1" data-name="Laag 1" xmlns="http://www.w3.org/2000/svg" xmlns:xlink="http://www.w3.org/1999/xlink" viewBox="0 0 72 152"><defs><style>.cls-1{fill:url(#PMP-verloop);}.cls-2{fill:#95c11f;}.cls-3{fill:#fff;}</style><linearGradient id="PMP-verloop" x1="57.41" y1="-3.91" x2="19.41" y2="137.91" gradientUnits="userSpaceOnUse"><stop offset="0" stop-color="#312783"/><stop offset="0.14" stop-color="#2f2d87"/><stop offset="0.31" stop-color="#293d93"/><stop offset="0.52" stop-color="#2058a8"/><stop offset="0.73" stop-color="#137ec4"/><stop offset="0.96" stop-color="#03aee7"/><stop offset="1" stop-color="#00b6ed"/></linearGradient></defs><title>pmp-logo-cmyk</title><polygon class="cls-1" points="0 0 0 132 72 152 72 0 0 0"/><polygon class="cls-2" points="0 152 36 142 0 132 0 152"/><polygon class="cls-3" points="4.71 57.52 35.22 57.52 35.22 81.35 25.74 81.35 25.74 67.81 24.11 67.81 24.11 81.35 15.83 81.35 15.83 67.81 14.19 67.81 14.19 81.35 4.71 81.35 4.71 57.52"/><path class="cls-3" d="M29.78,97.31h1.81a2.37,2.37,0,0,1,2.6,2.56v0a2.45,2.45,0,0,1-2.58,2.61H31V105H29.78Zm1.77,4.11A1.35,1.35,0,0,0,33,99.91h0a1.32,1.32,0,0,0-1.43-1.5H31v3Z"/><path class="cls-3" d="M35.65,97.31H37.7a2.57,2.57,0,0,1,1.89.68,2.36,2.36,0,0,1,.63,1.73v.06A2.22,2.22,0,0,1,38.9,102L40.39,105H39.06l-1.33-2.78h-.89V105H35.65Zm1.88,3.88a1.31,1.31,0,0,0,1.5-1.4,1.27,1.27,0,0,0-1.44-1.39h-.75v2.79Z"/><path class="cls-3" d="M41.9,97.31h1.18V105H41.9Z"/><path class="cls-3" d="M44.52,97.31h1.25l1.42,5.7,1.42-5.7h1.21l-2.08,7.75H46.6Z"/><path class="cls-3" d="M52.35,97.28h1.2L55.76,105H54.54l-.48-1.78H51.8L51.33,105H50.15Zm1.42,4.91-.84-3.09-.84,3.09Z"/><path class="cls-3" d="M56.64,101.24v-.15c0-2.5,1.23-3.86,2.84-3.86a2.42,2.42,0,0,1,1.75.7l-.67.95a1.57,1.57,0,0,0-1.09-.52c-.9,0-1.62,1-1.62,2.77v.06c0,1.87.75,2.78,1.6,2.78a1.6,1.6,0,0,0,1.16-.57l.64.91a2.58,2.58,0,0,1-1.85.79C57.75,105.1,56.64,103.75,56.64,101.24Z"/><path class="cls-3" d="M64.14,101.92l-2.06-4.61h1.29l1.38,3.25,1.37-3.25h1.27l-2.06,4.6V105H64.14Z"/><path class="cls-3" d="M4.66,108.31H5.88l1.55,3.43L9,108.31H10.2V116H9v-5.36l-1.6,3.49h0L5.8,110.67V116H4.66Z"/><path class="cls-3" d="M13.84,108.28H15L17.25,116H16l-.48-1.78H13.29L12.82,116H11.64Zm1.42,4.91-.84-3.09-.84,3.09Z"/><path class="cls-3" d="M18.69,108.31H19.8l2.57,4.91v-4.91h1.15V116h-1l-2.64-5.09V116H18.69Z"/><path class="cls-3" d="M27.16,108.28h1.2L30.57,116H29.35l-.48-1.78H26.61L26.14,116H25Zm1.42,4.91-.84-3.09-.84,3.09Z"/><path class="cls-3" d="M31.45,112.24v-.15c0-2.38,1.26-3.86,3-3.86a2.79,2.79,0,0,1,1.87.68l-.66,1a1.58,1.58,0,0,0-1.2-.54c-1.05,0-1.83,1-1.83,2.74v.13c0,1.89.81,2.79,1.85,2.79a1.34,1.34,0,0,0,.79-.22v-2H34.08v-1h2.33v3.7a3.51,3.51,0,0,1-2,.64C32.71,116.1,31.45,114.76,31.45,112.24Z"/><path class="cls-3" d="M38.17,108.31h3.88v1.1h-2.7v2.18h2.41v1.09H39.35v2.24H42.1V116H38.17Z"/><path class="cls-3" d="M43.7,108.31h1.22l1.56,3.43L48,108.31h1.22V116H48.09v-5.36l-1.6,3.49h0l-1.6-3.48V116H43.7Z"/><path class="cls-3" d="M51.11,108.31H55v1.1H52.28v2.18h2.41v1.09H52.28v2.24H55V116H51.11Z"/><path class="cls-3" d="M56.64,108.31h1.11l2.56,4.91v-4.91h1.16V116h-1l-2.64-5.09V116H56.64Z"/><path class="cls-3" d="M64.47,109.43H62.93v-1.12h4.28v1.12H65.66V116H64.47Z"/><path class="cls-3" d="M21.52,119.31h1.81a2.37,2.37,0,0,1,2.6,2.56v0a2.45,2.45,0,0,1-2.59,2.61h-.63V127H21.52Zm1.77,4.11a1.36,1.36,0,0,0,1.44-1.51h0a1.32,1.32,0,0,0-1.43-1.5h-.59v3Z"/><path class="cls-3" d="M28.55,119.28h1.2L32,127H30.74l-.49-1.78H28L27.52,127H26.35ZM30,124.19l-.84-3.09-.85,3.09Z"/><path class="cls-3" d="M33.34,119.31h2a2.57,2.57,0,0,1,1.89.68,2.36,2.36,0,0,1,.63,1.73v.06A2.22,2.22,0,0,1,36.59,124L38.08,127H36.75l-1.33-2.78h-.89V127H33.34Zm1.88,3.88a1.31,1.31,0,0,0,1.5-1.4,1.27,1.27,0,0,0-1.44-1.39h-.75v2.79Z"/><path class="cls-3" d="M40.6,120.43H39.06v-1.12h4.28v1.12H41.79V127H40.6Z"/><path class="cls-3" d="M44.82,119.31h1.11l2.56,4.91v-4.91h1.16V127h-1L46,121.93V127H44.82Z"/><path class="cls-3" d="M51.5,119.31h3.89v1.1H52.68v2.18h2.41v1.09H52.68v2.24h2.75V127H51.5Z"/><path class="cls-3" d="M57,119.31h2A2.57,2.57,0,0,1,61,120a2.36,2.36,0,0,1,.63,1.73v.06A2.22,2.22,0,0,1,60.28,124l1.5,3.07H60.45l-1.33-2.78h-.9V127H57Zm1.88,3.88a1.3,1.3,0,0,0,1.49-1.4A1.27,1.27,0,0,0,59,120.4h-.75v2.79Z"/><path class="cls-3" d="M62.66,126.11l.71-.92a2.36,2.36,0,0,0,1.55.81,1,1,0,0,0,1-1h0c0-.42-.2-.75-1.18-1.33-1.26-.74-1.83-1.34-1.83-2.34v0a2.07,2.07,0,0,1,2.23-2.08,2.81,2.81,0,0,1,2,.84l-.73.92a1.94,1.94,0,0,0-1.32-.66.89.89,0,0,0-1,.87h0c0,.46.21.77,1.34,1.45S67.17,124,67.17,125v0a2.13,2.13,0,0,1-2.24,2.13A3.1,3.1,0,0,1,62.66,126.11Z"/><path class="cls-3" d="M36.72,44.85H67.23V64.47H47.54v4.21H36.72ZM56.4,54.39H47.54v1.73H56.4Z"/><path class="cls-3" d="M36.72,70.18H67.23V89.8H47.54V94H36.72ZM56.4,79.72H47.54v1.73H56.4Z"/></svg>