<svg id="Laag_1" data-name="Laag 1" xmlns="http://www.w3.org/2000/svg" viewBox="0 0 496.14 94.18"><defs><style>.cls-1{fill:#4c565c;}.cls-2{fill:#1d1d1b;}.cls-3{fill:#dc0714;}</style></defs><title>logo_secura</title><path class="cls-1" d="M172.13,8.53c-7.44-3-15.65-4-23.61-4C131,4.48,114.6,12.83,114.6,32c0,24.26,31,21.65,31,38.09,0,9.78-8.61,14.22-17.35,14.22-7.83,0-15.26-3-22.31-6.26l-4.7,15.52c8.22,3,17.22,5.09,26,5.09,20,0,37.44-8.09,37.44-30.39,0-25.31-31-24.39-31-39,0-7.83,8.74-10.44,15.26-10.44a43.12,43.12,0,0,1,18.92,4.7l4.3-15Zm68.62,60.4a72.44,72.44,0,0,0,1.7-15c0-17.09-11-25.57-27.52-25.57-22,0-38.22,20.09-38.22,41,0,20,13,29.35,32.35,29.35,7.17,0,14.61-1.7,21.39-3.78l2.22-13.83A49.23,49.23,0,0,1,212,85.88c-12,0-18.65-4.57-18.65-17Zm-45-12c3.39-9.26,8.09-15.78,18.91-15.78,7.31,0,11.09,4,11.09,11.22a27,27,0,0,1-.39,4.57ZM307.53,31a61.69,61.69,0,0,0-17.48-2.61c-24.13,0-39.66,17.87-39.66,41.35,0,17.35,11.22,29,28.57,29,5.74,0,11.48-.52,16.83-3.13l2-13.83a34.32,34.32,0,0,1-14.22,3.39c-12,0-14.87-8.74-14.87-17.48,0-12.65,7.83-25.7,21.78-25.7a23.64,23.64,0,0,1,12.78,3.39L307.53,31Zm73.7-1H363.75l-7.17,33.79c-2.22,10-6.65,21.39-18.78,21.39-5.61,0-9.52-3.78-9.52-9.39,0-5,1-9.52,2-14.09l6.52-31.7H319.27l-7,32.61c-.91,4.17-2.22,9.52-2.22,14.61,0,13.31,8.74,21.52,21.92,21.52,7.57,0,14.22-3.65,19-8.09h.26l-1.17,6.52h17.09c.26-2.09.91-5.61,1.7-9.65l12.39-57.53Zm4.17,67.18h17.48L409.15,67c2.22-10.83,8.22-21.92,20.61-21.92a22.19,22.19,0,0,1,6.65,1L440.07,29a28.09,28.09,0,0,0-6.65-.65c-8.09,0-16.7,6.91-19.83,14.22h-.26l2.35-12.65H399q-.78,4.7-1.57,9l-12,58.18Zm91.57,0h14.74c1.56-12.65,8.22-39,8.22-48,0-15.78-12.65-20.74-26.09-20.74a68.43,68.43,0,0,0-22.83,4l-2.48,14a51.64,51.64,0,0,1,22-5.22c6.13,0,13.44,2,13.44,8.74a21,21,0,0,1-.52,5.74h-6.13c-16.44,0-41.22,1.7-41.22,23.87,0,12.39,8.61,19.18,20.74,19.18,9.65,0,15.65-4.31,21.65-11.87h.26L477,97.1ZM452.85,78.84c0-11.35,14.09-12.78,22.57-12.78h6.13c-2.74,10.83-6.78,19.83-19.83,19.83-4.44,0-8.87-2.35-8.87-7Z" transform="translate(-3.8 -4.48)"/><path class="cls-1" d="M47.37,95.21S8.23,83.68,3.8,24.61C3.8,24.61,36,9.26,68.36,29a68.32,68.32,0,0,0-50.13,5.75S9.49,62,47.37,95.21" transform="translate(-3.8 -4.48)"/><path class="cls-2" d="M96.45,25.31S106,65,57.09,98.34c0,0-29.38-20.19-28.51-58.09a68.32,68.32,0,0,0,30,40.53s28-6.09,37.83-55.48" transform="translate(-3.8 -4.48)"/><path class="cls-3" d="M11.54,17.77S41.1-10.35,94.47,15.34c0,0-2.8,35.54-36,53.74A68.31,68.31,0,0,0,78.51,22.79s-19.29-21.23-67-5" transform="translate(-3.8 -4.48)"/></svg>